M48
INCH,TZ
T10C0.025
T11C0.026
T12C0.028
T13C0.030
T14C0.031
T15C0.032
T16C0.032
T17C0.033
T18C0.035
T19C0.039
T20C0.040
T21C0.045
T22C0.047
T23C0.050
T24C0.075
%
T10
X085750Y-58250
X087000Y-60250
X090250Y-48250
X090250Y-59000
X091000Y-64250
X094250Y-50250
T11
X066250Y-60500
X066250Y-61287
X066250Y-62075
X066250Y-62862
X066250Y-63650
X066250Y-64437
X066250Y-65224
X066250Y-66012
X071762Y-60500
X071762Y-61287
X071762Y-62075
X071762Y-62862
X071762Y-63650
X071762Y-64437
X071762Y-65224
X071762Y-66012
T12
X085200Y-45700
X085200Y-49700
T13
X071375Y-55000
X071375Y-57750
X075625Y-55000
X075625Y-56375
X075625Y-57750
X077500Y-46500
X077500Y-48500
X079500Y-46500
X079500Y-48500
T14
X071000Y-51500
X076906Y-51500
X086750Y-54500
X086750Y-55500
X086750Y-56500
X086750Y-57500
X088750Y-49500
X088750Y-52500
X089750Y-49500
X089750Y-52500
X089750Y-54500
X089750Y-55500
X089750Y-56500
X089750Y-57500
X089750Y-60500
X089750Y-61500
X089750Y-62500
X089750Y-63500
X089750Y-64500
X089750Y-65500
X089750Y-66500
X090750Y-49500
X090750Y-52500
X091750Y-45000
X091750Y-48000
X091750Y-49500
X091750Y-52500
X092750Y-45000
X092750Y-48000
X092750Y-60500
X092750Y-61500
X092750Y-62500
X092750Y-63500
X092750Y-64500
X092750Y-65500
X092750Y-66500
X093750Y-45000
X093750Y-48000
T15
X088000Y-61539
X088000Y-63461
X092250Y-54789
X092250Y-56711
T16
X067406Y-47697
X067406Y-48500
X067406Y-54437
X067406Y-55240
X068406Y-47295
X068406Y-48098
X068406Y-54035
X068406Y-54839
X073500Y-61000
X073500Y-63000
X073500Y-65200
X073500Y-67200
X076500Y-61000
X076500Y-63000
X076500Y-65200
X076500Y-67200
X094500Y-64500
X094500Y-67500
X096500Y-64500
X096500Y-67500
T17
X096385Y-46416
X096385Y-48385
T18
X072000Y-46000
X072000Y-48500
X075051Y-46000
X075051Y-48500
X078300Y-55031
X078300Y-57000
X080500Y-55031
X080500Y-57000
T19
X079750Y-51494
X079750Y-53000
X081902Y-45700
X082750Y-63501
X083600Y-49700
T20
X078300Y-66500
X079300Y-66500
X080300Y-66500
X082300Y-66500
X083300Y-66500
X084300Y-66500
X094500Y-62000
X094500Y-63000
X095500Y-62000
X095500Y-63000
X096500Y-62000
X096500Y-63000
T21
X097448Y-46022
X097448Y-48778
T22
X087250Y-45750
X087250Y-47718
X089234Y-46734
T23
X078750Y-63501
X081902Y-49700
X083600Y-45700
X083750Y-51494
X083750Y-53000
T24
X066500Y-45535
X066500Y-50260
X066500Y-52276
X066500Y-57000
M30

