G04 #@! TF.FileFunction,Legend,Top*
%FSLAX46Y46*%
G04 Gerber Fmt 4.6, Leading zero omitted, Abs format (unit mm)*
G04 Created by KiCad (PCBNEW 4.0.2+dfsg1-stable) date Sat Feb 27 20:39:48 2016*
%MOMM*%
G01*
G04 APERTURE LIST*
%ADD10C,0.150000*%
%ADD11C,0.200000*%
%ADD12C,0.152400*%
%ADD13C,0.300000*%
%ADD14R,2.500000X1.100000*%
%ADD15O,2.500000X1.100000*%
%ADD16R,1.727200X2.032000*%
%ADD17O,1.727200X2.032000*%
%ADD18C,1.699260*%
%ADD19R,1.699260X1.699260*%
%ADD20R,1.800860X1.597660*%
%ADD21R,1.400000X1.400000*%
%ADD22C,1.400000*%
%ADD23R,1.700000X2.000000*%
%ADD24R,1.500000X1.250000*%
%ADD25R,1.600200X2.999740*%
%ADD26C,1.501140*%
%ADD27O,1.600000X1.600000*%
%ADD28R,3.657600X2.032000*%
%ADD29R,1.016000X2.032000*%
%ADD30C,1.397000*%
%ADD31C,2.499360*%
%ADD32C,1.998980*%
%ADD33R,1.998980X1.998980*%
%ADD34R,1.727200X1.727200*%
%ADD35O,1.727200X1.727200*%
%ADD36C,1.524000*%
%ADD37R,1.350000X0.400000*%
%ADD38C,1.250000*%
%ADD39C,1.550000*%
%ADD40C,2.000000*%
%ADD41R,1.501140X2.999740*%
G04 APERTURE END LIST*
D10*
D11*
X203289047Y-172827905D02*
X203289047Y-172027905D01*
X203593809Y-172027905D01*
X203670000Y-172066000D01*
X203708095Y-172104095D01*
X203746190Y-172180286D01*
X203746190Y-172294571D01*
X203708095Y-172370762D01*
X203670000Y-172408857D01*
X203593809Y-172446952D01*
X203289047Y-172446952D01*
X204089047Y-172827905D02*
X204089047Y-172294571D01*
X204089047Y-172446952D02*
X204127142Y-172370762D01*
X204165238Y-172332667D01*
X204241428Y-172294571D01*
X204317619Y-172294571D01*
X204698571Y-172827905D02*
X204622380Y-172789810D01*
X204584285Y-172751714D01*
X204546190Y-172675524D01*
X204546190Y-172446952D01*
X204584285Y-172370762D01*
X204622380Y-172332667D01*
X204698571Y-172294571D01*
X204812857Y-172294571D01*
X204889047Y-172332667D01*
X204927142Y-172370762D01*
X204965238Y-172446952D01*
X204965238Y-172675524D01*
X204927142Y-172751714D01*
X204889047Y-172789810D01*
X204812857Y-172827905D01*
X204698571Y-172827905D01*
X205650952Y-172294571D02*
X205650952Y-172942190D01*
X205612857Y-173018381D01*
X205574762Y-173056476D01*
X205498571Y-173094571D01*
X205384286Y-173094571D01*
X205308095Y-173056476D01*
X205650952Y-172789810D02*
X205574762Y-172827905D01*
X205422381Y-172827905D01*
X205346190Y-172789810D01*
X205308095Y-172751714D01*
X205270000Y-172675524D01*
X205270000Y-172446952D01*
X205308095Y-172370762D01*
X205346190Y-172332667D01*
X205422381Y-172294571D01*
X205574762Y-172294571D01*
X205650952Y-172332667D01*
X204470000Y-171450000D02*
X204470000Y-170942000D01*
X203962000Y-171450000D02*
X204470000Y-171450000D01*
X202946000Y-171450000D02*
X203454000Y-171450000D01*
X201930000Y-171450000D02*
X202438000Y-171450000D01*
X201422000Y-171450000D02*
X201422000Y-170942000D01*
X198882000Y-171450000D02*
X201422000Y-171450000D01*
X198882000Y-170942000D02*
X198882000Y-171450000D01*
X167418095Y-150550571D02*
X167751429Y-150550571D01*
X167894286Y-151074381D02*
X167418095Y-151074381D01*
X167418095Y-150074381D01*
X167894286Y-150074381D01*
X168275238Y-151026762D02*
X168418095Y-151074381D01*
X168656191Y-151074381D01*
X168751429Y-151026762D01*
X168799048Y-150979143D01*
X168846667Y-150883905D01*
X168846667Y-150788667D01*
X168799048Y-150693429D01*
X168751429Y-150645810D01*
X168656191Y-150598190D01*
X168465714Y-150550571D01*
X168370476Y-150502952D01*
X168322857Y-150455333D01*
X168275238Y-150360095D01*
X168275238Y-150264857D01*
X168322857Y-150169619D01*
X168370476Y-150122000D01*
X168465714Y-150074381D01*
X168703810Y-150074381D01*
X168846667Y-150122000D01*
X169275238Y-151074381D02*
X169275238Y-150074381D01*
X169656191Y-150074381D01*
X169751429Y-150122000D01*
X169799048Y-150169619D01*
X169846667Y-150264857D01*
X169846667Y-150407714D01*
X169799048Y-150502952D01*
X169751429Y-150550571D01*
X169656191Y-150598190D01*
X169275238Y-150598190D01*
X170275238Y-150693429D02*
X171037143Y-150693429D01*
X172037143Y-151074381D02*
X171465714Y-151074381D01*
X171751428Y-151074381D02*
X171751428Y-150074381D01*
X171656190Y-150217238D01*
X171560952Y-150312476D01*
X171465714Y-150360095D01*
X172418095Y-150169619D02*
X172465714Y-150122000D01*
X172560952Y-150074381D01*
X172799048Y-150074381D01*
X172894286Y-150122000D01*
X172941905Y-150169619D01*
X172989524Y-150264857D01*
X172989524Y-150360095D01*
X172941905Y-150502952D01*
X172370476Y-151074381D01*
X172989524Y-151074381D01*
X216487524Y-168292571D02*
X216820858Y-168292571D01*
X216963715Y-168816381D02*
X216487524Y-168816381D01*
X216487524Y-167816381D01*
X216963715Y-167816381D01*
X217344667Y-168768762D02*
X217487524Y-168816381D01*
X217725620Y-168816381D01*
X217820858Y-168768762D01*
X217868477Y-168721143D01*
X217916096Y-168625905D01*
X217916096Y-168530667D01*
X217868477Y-168435429D01*
X217820858Y-168387810D01*
X217725620Y-168340190D01*
X217535143Y-168292571D01*
X217439905Y-168244952D01*
X217392286Y-168197333D01*
X217344667Y-168102095D01*
X217344667Y-168006857D01*
X217392286Y-167911619D01*
X217439905Y-167864000D01*
X217535143Y-167816381D01*
X217773239Y-167816381D01*
X217916096Y-167864000D01*
X218344667Y-168816381D02*
X218344667Y-167816381D01*
X218725620Y-167816381D01*
X218820858Y-167864000D01*
X218868477Y-167911619D01*
X218916096Y-168006857D01*
X218916096Y-168149714D01*
X218868477Y-168244952D01*
X218820858Y-168292571D01*
X218725620Y-168340190D01*
X218344667Y-168340190D01*
X216082762Y-169416381D02*
X216082762Y-170225905D01*
X216130381Y-170321143D01*
X216178000Y-170368762D01*
X216273238Y-170416381D01*
X216463715Y-170416381D01*
X216558953Y-170368762D01*
X216606572Y-170321143D01*
X216654191Y-170225905D01*
X216654191Y-169416381D01*
X217082762Y-170130667D02*
X217558953Y-170130667D01*
X216987524Y-170416381D02*
X217320857Y-169416381D01*
X217654191Y-170416381D01*
X218558953Y-170416381D02*
X218225619Y-169940190D01*
X217987524Y-170416381D02*
X217987524Y-169416381D01*
X218368477Y-169416381D01*
X218463715Y-169464000D01*
X218511334Y-169511619D01*
X218558953Y-169606857D01*
X218558953Y-169749714D01*
X218511334Y-169844952D01*
X218463715Y-169892571D01*
X218368477Y-169940190D01*
X217987524Y-169940190D01*
X218844667Y-169416381D02*
X219416096Y-169416381D01*
X219130381Y-170416381D02*
X219130381Y-169416381D01*
X244102095Y-125398381D02*
X244102095Y-126207905D01*
X244149714Y-126303143D01*
X244197333Y-126350762D01*
X244292571Y-126398381D01*
X244483048Y-126398381D01*
X244578286Y-126350762D01*
X244625905Y-126303143D01*
X244673524Y-126207905D01*
X244673524Y-125398381D01*
X245102095Y-126350762D02*
X245244952Y-126398381D01*
X245483048Y-126398381D01*
X245578286Y-126350762D01*
X245625905Y-126303143D01*
X245673524Y-126207905D01*
X245673524Y-126112667D01*
X245625905Y-126017429D01*
X245578286Y-125969810D01*
X245483048Y-125922190D01*
X245292571Y-125874571D01*
X245197333Y-125826952D01*
X245149714Y-125779333D01*
X245102095Y-125684095D01*
X245102095Y-125588857D01*
X245149714Y-125493619D01*
X245197333Y-125446000D01*
X245292571Y-125398381D01*
X245530667Y-125398381D01*
X245673524Y-125446000D01*
X246435429Y-125874571D02*
X246578286Y-125922190D01*
X246625905Y-125969810D01*
X246673524Y-126065048D01*
X246673524Y-126207905D01*
X246625905Y-126303143D01*
X246578286Y-126350762D01*
X246483048Y-126398381D01*
X246102095Y-126398381D01*
X246102095Y-125398381D01*
X246435429Y-125398381D01*
X246530667Y-125446000D01*
X246578286Y-125493619D01*
X246625905Y-125588857D01*
X246625905Y-125684095D01*
X246578286Y-125779333D01*
X246530667Y-125826952D01*
X246435429Y-125874571D01*
X246102095Y-125874571D01*
X244030667Y-127998381D02*
X244030667Y-126998381D01*
X244411620Y-126998381D01*
X244506858Y-127046000D01*
X244554477Y-127093619D01*
X244602096Y-127188857D01*
X244602096Y-127331714D01*
X244554477Y-127426952D01*
X244506858Y-127474571D01*
X244411620Y-127522190D01*
X244030667Y-127522190D01*
X244935429Y-126998381D02*
X245173524Y-127998381D01*
X245364001Y-127284095D01*
X245554477Y-127998381D01*
X245792572Y-126998381D01*
X246744953Y-127998381D02*
X246411619Y-127522190D01*
X246173524Y-127998381D02*
X246173524Y-126998381D01*
X246554477Y-126998381D01*
X246649715Y-127046000D01*
X246697334Y-127093619D01*
X246744953Y-127188857D01*
X246744953Y-127331714D01*
X246697334Y-127426952D01*
X246649715Y-127474571D01*
X246554477Y-127522190D01*
X246173524Y-127522190D01*
X237910667Y-170290762D02*
X237910667Y-169814571D01*
X238196381Y-170386000D02*
X237196381Y-170052667D01*
X238196381Y-169719333D01*
X237196381Y-169528857D02*
X238196381Y-169195524D01*
X237196381Y-168862190D01*
X238196381Y-167957428D02*
X237720190Y-168290762D01*
X238196381Y-168528857D02*
X237196381Y-168528857D01*
X237196381Y-168147904D01*
X237244000Y-168052666D01*
X237291619Y-168005047D01*
X237386857Y-167957428D01*
X237529714Y-167957428D01*
X237624952Y-168005047D01*
X237672571Y-168052666D01*
X237720190Y-168147904D01*
X237720190Y-168528857D01*
X238196381Y-166195523D02*
X237720190Y-166528857D01*
X238196381Y-166766952D02*
X237196381Y-166766952D01*
X237196381Y-166385999D01*
X237244000Y-166290761D01*
X237291619Y-166243142D01*
X237386857Y-166195523D01*
X237529714Y-166195523D01*
X237624952Y-166243142D01*
X237672571Y-166290761D01*
X237720190Y-166385999D01*
X237720190Y-166766952D01*
X238148762Y-165814571D02*
X238196381Y-165671714D01*
X238196381Y-165433618D01*
X238148762Y-165338380D01*
X238101143Y-165290761D01*
X238005905Y-165243142D01*
X237910667Y-165243142D01*
X237815429Y-165290761D01*
X237767810Y-165338380D01*
X237720190Y-165433618D01*
X237672571Y-165624095D01*
X237624952Y-165719333D01*
X237577333Y-165766952D01*
X237482095Y-165814571D01*
X237386857Y-165814571D01*
X237291619Y-165766952D01*
X237244000Y-165719333D01*
X237196381Y-165624095D01*
X237196381Y-165385999D01*
X237244000Y-165243142D01*
X237196381Y-164957428D02*
X237196381Y-164385999D01*
X238196381Y-164671714D02*
X237196381Y-164671714D01*
X240062095Y-155360667D02*
X240538286Y-155360667D01*
X239966857Y-155646381D02*
X240300190Y-154646381D01*
X240633524Y-155646381D01*
X240824000Y-154646381D02*
X241157333Y-155646381D01*
X241490667Y-154646381D01*
X242395429Y-155646381D02*
X242062095Y-155170190D01*
X241824000Y-155646381D02*
X241824000Y-154646381D01*
X242204953Y-154646381D01*
X242300191Y-154694000D01*
X242347810Y-154741619D01*
X242395429Y-154836857D01*
X242395429Y-154979714D01*
X242347810Y-155074952D01*
X242300191Y-155122571D01*
X242204953Y-155170190D01*
X241824000Y-155170190D01*
X243585905Y-155646381D02*
X243585905Y-154646381D01*
X244014476Y-155598762D02*
X244157333Y-155646381D01*
X244395429Y-155646381D01*
X244490667Y-155598762D01*
X244538286Y-155551143D01*
X244585905Y-155455905D01*
X244585905Y-155360667D01*
X244538286Y-155265429D01*
X244490667Y-155217810D01*
X244395429Y-155170190D01*
X244204952Y-155122571D01*
X244109714Y-155074952D01*
X244062095Y-155027333D01*
X244014476Y-154932095D01*
X244014476Y-154836857D01*
X244062095Y-154741619D01*
X244109714Y-154694000D01*
X244204952Y-154646381D01*
X244443048Y-154646381D01*
X244585905Y-154694000D01*
X245014476Y-155646381D02*
X245014476Y-154646381D01*
X245395429Y-154646381D01*
X245490667Y-154694000D01*
X245538286Y-154741619D01*
X245585905Y-154836857D01*
X245585905Y-154979714D01*
X245538286Y-155074952D01*
X245490667Y-155122571D01*
X245395429Y-155170190D01*
X245014476Y-155170190D01*
X213976000Y-172726286D02*
X213937905Y-172802477D01*
X213937905Y-172916762D01*
X213976000Y-173031048D01*
X214052190Y-173107239D01*
X214128381Y-173145334D01*
X214280762Y-173183429D01*
X214395048Y-173183429D01*
X214547429Y-173145334D01*
X214623619Y-173107239D01*
X214699810Y-173031048D01*
X214737905Y-172916762D01*
X214737905Y-172840572D01*
X214699810Y-172726286D01*
X214661714Y-172688191D01*
X214395048Y-172688191D01*
X214395048Y-172840572D01*
X214204571Y-172345334D02*
X214737905Y-172345334D01*
X214280762Y-172345334D02*
X214242667Y-172307239D01*
X214204571Y-172231048D01*
X214204571Y-172116762D01*
X214242667Y-172040572D01*
X214318857Y-172002477D01*
X214737905Y-172002477D01*
X214737905Y-171278667D02*
X213937905Y-171278667D01*
X214699810Y-171278667D02*
X214737905Y-171354857D01*
X214737905Y-171507238D01*
X214699810Y-171583429D01*
X214661714Y-171621524D01*
X214585524Y-171659619D01*
X214356952Y-171659619D01*
X214280762Y-171621524D01*
X214242667Y-171583429D01*
X214204571Y-171507238D01*
X214204571Y-171354857D01*
X214242667Y-171278667D01*
X211943905Y-172034190D02*
X211562952Y-172300857D01*
X211943905Y-172491333D02*
X211143905Y-172491333D01*
X211143905Y-172186571D01*
X211182000Y-172110380D01*
X211220095Y-172072285D01*
X211296286Y-172034190D01*
X211410571Y-172034190D01*
X211486762Y-172072285D01*
X211524857Y-172110380D01*
X211562952Y-172186571D01*
X211562952Y-172491333D01*
X211943905Y-171767523D02*
X211410571Y-171348476D01*
X211410571Y-171767523D02*
X211943905Y-171348476D01*
X208603905Y-172510381D02*
X208603905Y-172053238D01*
X209403905Y-172281809D02*
X208603905Y-172281809D01*
X209403905Y-171862761D02*
X208870571Y-171443714D01*
X208870571Y-171862761D02*
X209403905Y-171443714D01*
X197510571Y-172827905D02*
X197510571Y-172027905D01*
X197967714Y-172827905D01*
X197967714Y-172027905D01*
X198462952Y-172827905D02*
X198386761Y-172789810D01*
X198348666Y-172751714D01*
X198310571Y-172675524D01*
X198310571Y-172446952D01*
X198348666Y-172370762D01*
X198386761Y-172332667D01*
X198462952Y-172294571D01*
X198577238Y-172294571D01*
X198653428Y-172332667D01*
X198691523Y-172370762D01*
X198729619Y-172446952D01*
X198729619Y-172675524D01*
X198691523Y-172751714D01*
X198653428Y-172789810D01*
X198577238Y-172827905D01*
X198462952Y-172827905D01*
X199072476Y-172827905D02*
X199072476Y-172294571D01*
X199072476Y-172446952D02*
X199110571Y-172370762D01*
X199148667Y-172332667D01*
X199224857Y-172294571D01*
X199301048Y-172294571D01*
X199567714Y-172827905D02*
X199567714Y-172294571D01*
X199567714Y-172370762D02*
X199605809Y-172332667D01*
X199682000Y-172294571D01*
X199796286Y-172294571D01*
X199872476Y-172332667D01*
X199910571Y-172408857D01*
X199910571Y-172827905D01*
X199910571Y-172408857D02*
X199948667Y-172332667D01*
X200024857Y-172294571D01*
X200139143Y-172294571D01*
X200215333Y-172332667D01*
X200253428Y-172408857D01*
X200253428Y-172827905D01*
X189047619Y-173680381D02*
X188714285Y-173204190D01*
X188476190Y-173680381D02*
X188476190Y-172680381D01*
X188857143Y-172680381D01*
X188952381Y-172728000D01*
X189000000Y-172775619D01*
X189047619Y-172870857D01*
X189047619Y-173013714D01*
X189000000Y-173108952D01*
X188952381Y-173156571D01*
X188857143Y-173204190D01*
X188476190Y-173204190D01*
X189476190Y-173156571D02*
X189809524Y-173156571D01*
X189952381Y-173680381D02*
X189476190Y-173680381D01*
X189476190Y-172680381D01*
X189952381Y-172680381D01*
X190333333Y-173632762D02*
X190476190Y-173680381D01*
X190714286Y-173680381D01*
X190809524Y-173632762D01*
X190857143Y-173585143D01*
X190904762Y-173489905D01*
X190904762Y-173394667D01*
X190857143Y-173299429D01*
X190809524Y-173251810D01*
X190714286Y-173204190D01*
X190523809Y-173156571D01*
X190428571Y-173108952D01*
X190380952Y-173061333D01*
X190333333Y-172966095D01*
X190333333Y-172870857D01*
X190380952Y-172775619D01*
X190428571Y-172728000D01*
X190523809Y-172680381D01*
X190761905Y-172680381D01*
X190904762Y-172728000D01*
X191333333Y-173156571D02*
X191666667Y-173156571D01*
X191809524Y-173680381D02*
X191333333Y-173680381D01*
X191333333Y-172680381D01*
X191809524Y-172680381D01*
X192095238Y-172680381D02*
X192666667Y-172680381D01*
X192380952Y-173680381D02*
X192380952Y-172680381D01*
X188714286Y-162758381D02*
X188714286Y-161758381D01*
X189095239Y-161758381D01*
X189190477Y-161806000D01*
X189238096Y-161853619D01*
X189285715Y-161948857D01*
X189285715Y-162091714D01*
X189238096Y-162186952D01*
X189190477Y-162234571D01*
X189095239Y-162282190D01*
X188714286Y-162282190D01*
X190285715Y-162758381D02*
X189952381Y-162282190D01*
X189714286Y-162758381D02*
X189714286Y-161758381D01*
X190095239Y-161758381D01*
X190190477Y-161806000D01*
X190238096Y-161853619D01*
X190285715Y-161948857D01*
X190285715Y-162091714D01*
X190238096Y-162186952D01*
X190190477Y-162234571D01*
X190095239Y-162282190D01*
X189714286Y-162282190D01*
X190904762Y-161758381D02*
X191095239Y-161758381D01*
X191190477Y-161806000D01*
X191285715Y-161901238D01*
X191333334Y-162091714D01*
X191333334Y-162425048D01*
X191285715Y-162615524D01*
X191190477Y-162710762D01*
X191095239Y-162758381D01*
X190904762Y-162758381D01*
X190809524Y-162710762D01*
X190714286Y-162615524D01*
X190666667Y-162425048D01*
X190666667Y-162091714D01*
X190714286Y-161901238D01*
X190809524Y-161806000D01*
X190904762Y-161758381D01*
X192285715Y-161806000D02*
X192190477Y-161758381D01*
X192047620Y-161758381D01*
X191904762Y-161806000D01*
X191809524Y-161901238D01*
X191761905Y-161996476D01*
X191714286Y-162186952D01*
X191714286Y-162329810D01*
X191761905Y-162520286D01*
X191809524Y-162615524D01*
X191904762Y-162710762D01*
X192047620Y-162758381D01*
X192142858Y-162758381D01*
X192285715Y-162710762D01*
X192333334Y-162663143D01*
X192333334Y-162329810D01*
X192142858Y-162329810D01*
D12*
X183291000Y-152811000D02*
X183291000Y-152049000D01*
X183291000Y-152049000D02*
X167289000Y-152049000D01*
X167289000Y-152049000D02*
X167289000Y-152811000D01*
D10*
X210312000Y-170180000D02*
X215392000Y-170180000D01*
X215392000Y-170180000D02*
X215392000Y-167640000D01*
X215392000Y-167640000D02*
X210312000Y-167640000D01*
X207492000Y-167360000D02*
X209042000Y-167360000D01*
X210312000Y-167640000D02*
X210312000Y-170180000D01*
X209042000Y-170460000D02*
X207492000Y-170460000D01*
X207492000Y-170460000D02*
X207492000Y-167360000D01*
X216408000Y-118872000D02*
X216408000Y-117475000D01*
X216408000Y-123317000D02*
X216408000Y-124841000D01*
X215646000Y-122936000D02*
X217170000Y-122936000D01*
X215646000Y-123190000D02*
X217170000Y-123190000D01*
X216408000Y-123444000D02*
X217170000Y-123444000D01*
X217170000Y-123444000D02*
X217170000Y-118872000D01*
X217170000Y-118872000D02*
X215646000Y-118872000D01*
X215646000Y-118872000D02*
X215646000Y-123444000D01*
X215646000Y-123444000D02*
X216408000Y-123444000D01*
X242790000Y-148980000D02*
X242790000Y-152580000D01*
X244890000Y-148980000D02*
X244890000Y-152580000D01*
X244140000Y-151030000D02*
X243540000Y-151030000D01*
X243540000Y-151030000D02*
X243840000Y-150730000D01*
X243840000Y-150730000D02*
X244040000Y-150930000D01*
X244040000Y-150930000D02*
X243790000Y-150930000D01*
X243790000Y-150930000D02*
X243840000Y-150880000D01*
X244340000Y-150630000D02*
X243340000Y-150630000D01*
X243840000Y-151130000D02*
X243840000Y-151630000D01*
X243840000Y-150630000D02*
X244340000Y-151130000D01*
X244340000Y-151130000D02*
X243340000Y-151130000D01*
X243340000Y-151130000D02*
X243840000Y-150630000D01*
X196632000Y-146030000D02*
X196632000Y-138530000D01*
X196632000Y-138530000D02*
X201132000Y-138530000D01*
X201132000Y-138530000D02*
X201132000Y-146030000D01*
X201132000Y-146030000D02*
X196632000Y-146030000D01*
X206720000Y-138530000D02*
X206720000Y-146030000D01*
X206720000Y-146030000D02*
X202220000Y-146030000D01*
X202220000Y-146030000D02*
X202220000Y-138530000D01*
X202220000Y-138530000D02*
X206720000Y-138530000D01*
X213165000Y-141145000D02*
X213165000Y-143145000D01*
X211015000Y-143145000D02*
X211015000Y-141145000D01*
X214825000Y-143145000D02*
X214825000Y-141145000D01*
X216975000Y-141145000D02*
X216975000Y-143145000D01*
X238320000Y-152130000D02*
X238320000Y-150130000D01*
X240470000Y-150130000D02*
X240470000Y-152130000D01*
X216035000Y-160870000D02*
X217035000Y-160870000D01*
X217035000Y-159170000D02*
X216035000Y-159170000D01*
X216035000Y-163410000D02*
X217035000Y-163410000D01*
X217035000Y-161710000D02*
X216035000Y-161710000D01*
X240530000Y-138215000D02*
X239530000Y-138215000D01*
X239530000Y-139915000D02*
X240530000Y-139915000D01*
X240530000Y-143295000D02*
X239530000Y-143295000D01*
X239530000Y-144995000D02*
X240530000Y-144995000D01*
X199390000Y-155956000D02*
X200787000Y-155956000D01*
X199136000Y-155829000D02*
X200914000Y-155829000D01*
X198755000Y-155702000D02*
X201295000Y-155702000D01*
X201422000Y-155575000D02*
X198628000Y-155575000D01*
X198501000Y-155448000D02*
X201549000Y-155448000D01*
X201676000Y-155321000D02*
X198374000Y-155321000D01*
X198247000Y-155194000D02*
X201803000Y-155194000D01*
X197358000Y-156337000D02*
X197358000Y-151765000D01*
X197358000Y-151765000D02*
X198120000Y-151003000D01*
X198120000Y-151003000D02*
X201930000Y-151003000D01*
X201930000Y-151003000D02*
X202692000Y-151765000D01*
X202692000Y-151765000D02*
X202692000Y-156337000D01*
X202692000Y-156337000D02*
X197358000Y-156337000D01*
X200025000Y-151511000D02*
X200025000Y-152273000D01*
X199644000Y-151892000D02*
X200406000Y-151892000D01*
X202438000Y-153670000D02*
G75*
G03X202438000Y-153670000I-2413000J0D01*
G01*
X216535000Y-155956000D02*
X217932000Y-155956000D01*
X216281000Y-155829000D02*
X218059000Y-155829000D01*
X215900000Y-155702000D02*
X218440000Y-155702000D01*
X218567000Y-155575000D02*
X215773000Y-155575000D01*
X215646000Y-155448000D02*
X218694000Y-155448000D01*
X218821000Y-155321000D02*
X215519000Y-155321000D01*
X215392000Y-155194000D02*
X218948000Y-155194000D01*
X214503000Y-156337000D02*
X214503000Y-151765000D01*
X214503000Y-151765000D02*
X215265000Y-151003000D01*
X215265000Y-151003000D02*
X219075000Y-151003000D01*
X219075000Y-151003000D02*
X219837000Y-151765000D01*
X219837000Y-151765000D02*
X219837000Y-156337000D01*
X219837000Y-156337000D02*
X214503000Y-156337000D01*
X217170000Y-151511000D02*
X217170000Y-152273000D01*
X216789000Y-151892000D02*
X217551000Y-151892000D01*
X219583000Y-153670000D02*
G75*
G03X219583000Y-153670000I-2413000J0D01*
G01*
X222519240Y-154051000D02*
X222920560Y-153850340D01*
X222920560Y-153850340D02*
X223520000Y-153748740D01*
X223520000Y-153748740D02*
X224020380Y-153850340D01*
X224020380Y-153850340D02*
X224718880Y-154249120D01*
X224718880Y-154249120D02*
X225120200Y-154851100D01*
X225120200Y-154851100D02*
X225320860Y-155450540D01*
X225320860Y-155450540D02*
X225320860Y-162049460D01*
X225320860Y-162049460D02*
X225120200Y-162750500D01*
X225120200Y-162750500D02*
X224820480Y-163149280D01*
X224820480Y-163149280D02*
X224320100Y-163550600D01*
X224320100Y-163550600D02*
X223720660Y-163751260D01*
X223720660Y-163751260D02*
X223220280Y-163751260D01*
X223220280Y-163751260D02*
X222719900Y-163550600D01*
X222719900Y-163550600D02*
X222120460Y-163050220D01*
X222120460Y-163050220D02*
X221820740Y-162549840D01*
X221820740Y-162549840D02*
X221719140Y-162049460D01*
X221719140Y-161950400D02*
X221719140Y-155348940D01*
X221719140Y-155348940D02*
X221820740Y-154950160D01*
X221820740Y-154950160D02*
X222120460Y-154449780D01*
X222120460Y-154449780D02*
X222620840Y-153949400D01*
X221190820Y-161940240D02*
X221239080Y-162399980D01*
X221239080Y-162399980D02*
X221350840Y-162798760D01*
X221350840Y-162798760D02*
X221569280Y-163230560D01*
X221569280Y-163230560D02*
X221800420Y-163520120D01*
X221800420Y-163520120D02*
X222150940Y-163850320D01*
X222150940Y-163850320D02*
X222689420Y-164139880D01*
X222689420Y-164139880D02*
X223288860Y-164269420D01*
X223288860Y-164269420D02*
X223799400Y-164269420D01*
X223799400Y-164269420D02*
X224500440Y-164099240D01*
X224500440Y-164099240D02*
X225089720Y-163700460D01*
X225089720Y-163700460D02*
X225460560Y-163240720D01*
X225460560Y-163240720D02*
X225668840Y-162819080D01*
X225668840Y-162819080D02*
X225828860Y-162369500D01*
X225828860Y-162369500D02*
X225859340Y-161930080D01*
X225640900Y-154589480D02*
X225419920Y-154211020D01*
X225419920Y-154211020D02*
X225140520Y-153890980D01*
X225140520Y-153890980D02*
X224810320Y-153639520D01*
X224810320Y-153639520D02*
X224259140Y-153339800D01*
X224259140Y-153339800D02*
X223789240Y-153230580D01*
X223789240Y-153230580D02*
X223329500Y-153210260D01*
X223329500Y-153210260D02*
X222869760Y-153299160D01*
X222869760Y-153299160D02*
X222420180Y-153489660D01*
X222420180Y-153489660D02*
X221950280Y-153850340D01*
X221950280Y-153850340D02*
X221630240Y-154200860D01*
X221630240Y-154200860D02*
X221399100Y-154589480D01*
X221399100Y-154589480D02*
X221259400Y-155018740D01*
X221259400Y-155018740D02*
X221190820Y-155460700D01*
X225849180Y-161950400D02*
X225849180Y-155498800D01*
X225849180Y-155498800D02*
X225811080Y-155079700D01*
X225811080Y-155079700D02*
X225640900Y-154589480D01*
X221190820Y-161950400D02*
X221190820Y-155498800D01*
X233314240Y-136906000D02*
X233715560Y-136705340D01*
X233715560Y-136705340D02*
X234315000Y-136603740D01*
X234315000Y-136603740D02*
X234815380Y-136705340D01*
X234815380Y-136705340D02*
X235513880Y-137104120D01*
X235513880Y-137104120D02*
X235915200Y-137706100D01*
X235915200Y-137706100D02*
X236115860Y-138305540D01*
X236115860Y-138305540D02*
X236115860Y-144904460D01*
X236115860Y-144904460D02*
X235915200Y-145605500D01*
X235915200Y-145605500D02*
X235615480Y-146004280D01*
X235615480Y-146004280D02*
X235115100Y-146405600D01*
X235115100Y-146405600D02*
X234515660Y-146606260D01*
X234515660Y-146606260D02*
X234015280Y-146606260D01*
X234015280Y-146606260D02*
X233514900Y-146405600D01*
X233514900Y-146405600D02*
X232915460Y-145905220D01*
X232915460Y-145905220D02*
X232615740Y-145404840D01*
X232615740Y-145404840D02*
X232514140Y-144904460D01*
X232514140Y-144805400D02*
X232514140Y-138203940D01*
X232514140Y-138203940D02*
X232615740Y-137805160D01*
X232615740Y-137805160D02*
X232915460Y-137304780D01*
X232915460Y-137304780D02*
X233415840Y-136804400D01*
X231985820Y-144795240D02*
X232034080Y-145254980D01*
X232034080Y-145254980D02*
X232145840Y-145653760D01*
X232145840Y-145653760D02*
X232364280Y-146085560D01*
X232364280Y-146085560D02*
X232595420Y-146375120D01*
X232595420Y-146375120D02*
X232945940Y-146705320D01*
X232945940Y-146705320D02*
X233484420Y-146994880D01*
X233484420Y-146994880D02*
X234083860Y-147124420D01*
X234083860Y-147124420D02*
X234594400Y-147124420D01*
X234594400Y-147124420D02*
X235295440Y-146954240D01*
X235295440Y-146954240D02*
X235884720Y-146555460D01*
X235884720Y-146555460D02*
X236255560Y-146095720D01*
X236255560Y-146095720D02*
X236463840Y-145674080D01*
X236463840Y-145674080D02*
X236623860Y-145224500D01*
X236623860Y-145224500D02*
X236654340Y-144785080D01*
X236435900Y-137444480D02*
X236214920Y-137066020D01*
X236214920Y-137066020D02*
X235935520Y-136745980D01*
X235935520Y-136745980D02*
X235605320Y-136494520D01*
X235605320Y-136494520D02*
X235054140Y-136194800D01*
X235054140Y-136194800D02*
X234584240Y-136085580D01*
X234584240Y-136085580D02*
X234124500Y-136065260D01*
X234124500Y-136065260D02*
X233664760Y-136154160D01*
X233664760Y-136154160D02*
X233215180Y-136344660D01*
X233215180Y-136344660D02*
X232745280Y-136705340D01*
X232745280Y-136705340D02*
X232425240Y-137055860D01*
X232425240Y-137055860D02*
X232194100Y-137444480D01*
X232194100Y-137444480D02*
X232054400Y-137873740D01*
X232054400Y-137873740D02*
X231985820Y-138315700D01*
X236644180Y-144805400D02*
X236644180Y-138353800D01*
X236644180Y-138353800D02*
X236606080Y-137934700D01*
X236606080Y-137934700D02*
X236435900Y-137444480D01*
X231985820Y-144805400D02*
X231985820Y-138353800D01*
X235340000Y-125865000D02*
X234070000Y-125865000D01*
X235340000Y-133215000D02*
X234070000Y-133215000D01*
X223130000Y-133215000D02*
X224400000Y-133215000D01*
X223130000Y-125865000D02*
X224400000Y-125865000D01*
X235340000Y-125865000D02*
X235340000Y-133215000D01*
X223130000Y-125865000D02*
X223130000Y-133215000D01*
X234070000Y-125865000D02*
X234070000Y-124930000D01*
X204724000Y-155194000D02*
X204724000Y-158242000D01*
X204724000Y-158242000D02*
X211836000Y-158242000D01*
X211836000Y-158242000D02*
X211836000Y-155194000D01*
X204724000Y-152146000D02*
X204724000Y-151384000D01*
X204724000Y-151384000D02*
X206248000Y-149098000D01*
X206248000Y-149098000D02*
X210312000Y-149098000D01*
X210312000Y-149098000D02*
X211836000Y-151384000D01*
X211836000Y-151384000D02*
X211836000Y-152146000D01*
X193040000Y-157480000D02*
G75*
G03X193040000Y-157480000I-2540000J0D01*
G01*
X186690000Y-153670000D02*
X194310000Y-153670000D01*
X194310000Y-153670000D02*
X194310000Y-161290000D01*
X194310000Y-161290000D02*
X186690000Y-161290000D01*
X186690000Y-153670000D02*
X186690000Y-161290000D01*
X245110000Y-167640000D02*
G75*
G03X245110000Y-167640000I-2540000J0D01*
G01*
X238760000Y-171450000D02*
X238760000Y-163830000D01*
X238760000Y-163830000D02*
X246380000Y-163830000D01*
X246380000Y-163830000D02*
X246380000Y-171450000D01*
X238760000Y-171450000D02*
X246380000Y-171450000D01*
X193040000Y-168148000D02*
G75*
G03X193040000Y-168148000I-2540000J0D01*
G01*
X186690000Y-164338000D02*
X194310000Y-164338000D01*
X194310000Y-164338000D02*
X194310000Y-171958000D01*
X194310000Y-171958000D02*
X186690000Y-171958000D01*
X186690000Y-164338000D02*
X186690000Y-171958000D01*
X224495360Y-118450360D02*
X225257360Y-118450360D01*
X224495360Y-118958360D02*
X225257360Y-118958360D01*
X222463360Y-118450360D02*
G75*
G03X223860360Y-120355360I1651000J-254000D01*
G01*
X223987360Y-117053360D02*
G75*
G03X222463360Y-118831360I127000J-1651000D01*
G01*
X223225360Y-120101360D02*
G75*
G03X225511360Y-119593360I889000J1397000D01*
G01*
X225511360Y-117815360D02*
G75*
G03X223225360Y-117307360I-1397000J-889000D01*
G01*
X220304360Y-115402360D02*
X220431360Y-115402360D01*
X224114360Y-115402360D02*
X222717360Y-115402360D01*
X220304360Y-122006360D02*
X220431360Y-122006360D01*
X224114360Y-122006360D02*
X222717360Y-122006360D01*
X221193360Y-117561360D02*
X221066360Y-117942360D01*
X221066360Y-117942360D02*
X220939360Y-118704360D01*
X220939360Y-118704360D02*
X221066360Y-119466360D01*
X221066360Y-119466360D02*
X221193360Y-119847360D01*
X222082360Y-117434360D02*
X222082360Y-119974360D01*
X222844360Y-121625360D02*
G75*
G03X227035360Y-119974360I1270000J2921000D01*
G01*
X227035360Y-117434360D02*
G75*
G03X222844360Y-115783360I-2921000J-1270000D01*
G01*
X227416360Y-120736360D02*
X227416360Y-119847360D01*
X227416360Y-117561360D02*
X227416360Y-116672360D01*
X224495360Y-120355360D02*
X224495360Y-120863360D01*
X224495360Y-120863360D02*
X223733360Y-120863360D01*
X223733360Y-120863360D02*
X223733360Y-120355360D01*
X224495360Y-117053360D02*
X224495360Y-116545360D01*
X224495360Y-116545360D02*
X223733360Y-116545360D01*
X223733360Y-116545360D02*
X223733360Y-117053360D01*
X223860360Y-119212360D02*
X223860360Y-120355360D01*
X224368360Y-119212360D02*
X224368360Y-120355360D01*
X223860360Y-118196360D02*
X223860360Y-117053360D01*
X224368360Y-118196360D02*
X224368360Y-117053360D01*
X223733360Y-118958360D02*
X222463360Y-118958360D01*
X223733360Y-118450360D02*
X222463360Y-118450360D01*
X224495360Y-118196360D02*
X223733360Y-118196360D01*
X223733360Y-118196360D02*
X223733360Y-119212360D01*
X223733360Y-119212360D02*
X224495360Y-119212360D01*
X224495360Y-119212360D02*
X224495360Y-118196360D01*
X227416360Y-116672360D02*
X226019360Y-115402360D01*
X226019360Y-115402360D02*
X224114360Y-115402360D01*
X227416360Y-120736360D02*
X226019360Y-122006360D01*
X226019360Y-122006360D02*
X224114360Y-122006360D01*
X220304360Y-121752360D02*
X220050360Y-121752360D01*
X220050360Y-121752360D02*
X220050360Y-120609360D01*
X220050360Y-120609360D02*
X220304360Y-120609360D01*
X220304360Y-115656360D02*
X220050360Y-115656360D01*
X220050360Y-115656360D02*
X220050360Y-116799360D01*
X220050360Y-116799360D02*
X220304360Y-116799360D01*
X220304360Y-115402360D02*
X220304360Y-122006360D01*
X228100000Y-151375000D02*
X228100000Y-152645000D01*
X235450000Y-151375000D02*
X235450000Y-152645000D01*
X235450000Y-171205000D02*
X235450000Y-169935000D01*
X228100000Y-171205000D02*
X228100000Y-169935000D01*
X228100000Y-151375000D02*
X235450000Y-151375000D01*
X228100000Y-171205000D02*
X235450000Y-171205000D01*
X228100000Y-152645000D02*
X227165000Y-152645000D01*
X220480000Y-136135000D02*
X220480000Y-137405000D01*
X227830000Y-136135000D02*
X227830000Y-137405000D01*
X227830000Y-148345000D02*
X227830000Y-147075000D01*
X220480000Y-148345000D02*
X220480000Y-147075000D01*
X220480000Y-136135000D02*
X227830000Y-136135000D01*
X220480000Y-148345000D02*
X227830000Y-148345000D01*
X220480000Y-137405000D02*
X219545000Y-137405000D01*
X240420000Y-114435000D02*
X239150000Y-114435000D01*
X240420000Y-121785000D02*
X239150000Y-121785000D01*
X230750000Y-121785000D02*
X232020000Y-121785000D01*
X230750000Y-114435000D02*
X232020000Y-114435000D01*
X240420000Y-114435000D02*
X240420000Y-121785000D01*
X230750000Y-114435000D02*
X230750000Y-121785000D01*
X239150000Y-114435000D02*
X239150000Y-113500000D01*
X202565000Y-161292540D02*
X201549000Y-161292540D01*
X207391000Y-161292540D02*
X208661000Y-161292540D01*
X207137000Y-162562540D02*
X207137000Y-160022540D01*
X206883000Y-162562540D02*
X206883000Y-160022540D01*
X206629000Y-162562540D02*
X206629000Y-160022540D01*
X207391000Y-162562540D02*
X207391000Y-160022540D01*
X206375000Y-162562540D02*
X207645000Y-160022540D01*
X207645000Y-162562540D02*
X206375000Y-160022540D01*
X206375000Y-162562540D02*
X206375000Y-160022540D01*
X207010000Y-162562540D02*
X207010000Y-160022540D01*
X207645000Y-160022540D02*
X207645000Y-162562540D01*
X207645000Y-162562540D02*
X202565000Y-162562540D01*
X202565000Y-162562540D02*
X202565000Y-160022540D01*
X202565000Y-160022540D02*
X207645000Y-160022540D01*
X210185000Y-134620000D02*
X211201000Y-134620000D01*
X205359000Y-134620000D02*
X204089000Y-134620000D01*
X205613000Y-133350000D02*
X205613000Y-135890000D01*
X205867000Y-133350000D02*
X205867000Y-135890000D01*
X206121000Y-133350000D02*
X206121000Y-135890000D01*
X205359000Y-133350000D02*
X205359000Y-135890000D01*
X206375000Y-133350000D02*
X205105000Y-135890000D01*
X205105000Y-133350000D02*
X206375000Y-135890000D01*
X206375000Y-133350000D02*
X206375000Y-135890000D01*
X205740000Y-133350000D02*
X205740000Y-135890000D01*
X205105000Y-135890000D02*
X205105000Y-133350000D01*
X205105000Y-133350000D02*
X210185000Y-133350000D01*
X210185000Y-133350000D02*
X210185000Y-135890000D01*
X210185000Y-135890000D02*
X205105000Y-135890000D01*
X210185000Y-130794760D02*
X211201000Y-130794760D01*
X205359000Y-130794760D02*
X204089000Y-130794760D01*
X205613000Y-129524760D02*
X205613000Y-132064760D01*
X205867000Y-129524760D02*
X205867000Y-132064760D01*
X206121000Y-129524760D02*
X206121000Y-132064760D01*
X205359000Y-129524760D02*
X205359000Y-132064760D01*
X206375000Y-129524760D02*
X205105000Y-132064760D01*
X205105000Y-129524760D02*
X206375000Y-132064760D01*
X206375000Y-129524760D02*
X206375000Y-132064760D01*
X205740000Y-129524760D02*
X205740000Y-132064760D01*
X205105000Y-132064760D02*
X205105000Y-129524760D01*
X205105000Y-129524760D02*
X210185000Y-129524760D01*
X210185000Y-129524760D02*
X210185000Y-132064760D01*
X210185000Y-132064760D02*
X205105000Y-132064760D01*
X208031080Y-123698000D02*
X208031080Y-124714000D01*
X208031080Y-118872000D02*
X208031080Y-117602000D01*
X209301080Y-119126000D02*
X206761080Y-119126000D01*
X209301080Y-119380000D02*
X206761080Y-119380000D01*
X209301080Y-119634000D02*
X206761080Y-119634000D01*
X209301080Y-118872000D02*
X206761080Y-118872000D01*
X209301080Y-119888000D02*
X206761080Y-118618000D01*
X209301080Y-118618000D02*
X206761080Y-119888000D01*
X209301080Y-119888000D02*
X206761080Y-119888000D01*
X209301080Y-119253000D02*
X206761080Y-119253000D01*
X206761080Y-118618000D02*
X209301080Y-118618000D01*
X209301080Y-118618000D02*
X209301080Y-123698000D01*
X209301080Y-123698000D02*
X206761080Y-123698000D01*
X206761080Y-123698000D02*
X206761080Y-118618000D01*
X212344000Y-118618000D02*
X212344000Y-117602000D01*
X212344000Y-123444000D02*
X212344000Y-124714000D01*
X211074000Y-123190000D02*
X213614000Y-123190000D01*
X211074000Y-122936000D02*
X213614000Y-122936000D01*
X211074000Y-122682000D02*
X213614000Y-122682000D01*
X211074000Y-123444000D02*
X213614000Y-123444000D01*
X211074000Y-122428000D02*
X213614000Y-123698000D01*
X211074000Y-123698000D02*
X213614000Y-122428000D01*
X211074000Y-122428000D02*
X213614000Y-122428000D01*
X211074000Y-123063000D02*
X213614000Y-123063000D01*
X213614000Y-123698000D02*
X211074000Y-123698000D01*
X211074000Y-123698000D02*
X211074000Y-118618000D01*
X211074000Y-118618000D02*
X213614000Y-118618000D01*
X213614000Y-118618000D02*
X213614000Y-123698000D01*
X241300000Y-161290000D02*
X246380000Y-161290000D01*
X238480000Y-161570000D02*
X238480000Y-160020000D01*
X238760000Y-158750000D02*
X241300000Y-158750000D01*
X241300000Y-158750000D02*
X241300000Y-161290000D01*
X246380000Y-161290000D02*
X246380000Y-156210000D01*
X246380000Y-156210000D02*
X241300000Y-156210000D01*
X238480000Y-161570000D02*
X240030000Y-161570000D01*
X238760000Y-156210000D02*
X238760000Y-158750000D01*
X241300000Y-156210000D02*
X238760000Y-156210000D01*
X178840000Y-127810000D02*
X196840000Y-127810000D01*
X196840000Y-127810000D02*
X196840000Y-133810000D01*
X196840000Y-133810000D02*
X178840000Y-133810000D01*
X178840000Y-133810000D02*
X178840000Y-127810000D01*
X180755000Y-120940000D02*
X192755000Y-120940000D01*
X192755000Y-120940000D02*
X192755000Y-125440000D01*
X192755000Y-125440000D02*
X180755000Y-125440000D01*
X180755000Y-125440000D02*
X180755000Y-120940000D01*
X180755000Y-114590000D02*
X192755000Y-114590000D01*
X192755000Y-114590000D02*
X192755000Y-119090000D01*
X192755000Y-119090000D02*
X180755000Y-119090000D01*
X180755000Y-119090000D02*
X180755000Y-114590000D01*
D13*
X204470000Y-120650000D02*
G75*
G03X204470000Y-120650000I-5080000J0D01*
G01*
D10*
X193357500Y-146685000D02*
G75*
G03X193357500Y-146685000I-1270000J0D01*
G01*
X180975000Y-138112500D02*
X183515000Y-138112500D01*
X179705000Y-147002500D02*
X179705000Y-139382500D01*
X183515000Y-148272500D02*
X180975000Y-148272500D01*
X189865000Y-148272500D02*
X192405000Y-148272500D01*
X192405000Y-138112500D02*
X189865000Y-138112500D01*
X193675000Y-139382500D02*
X193675000Y-147002500D01*
X179705000Y-147002500D02*
G75*
G03X180975000Y-148272500I1270000J0D01*
G01*
X180975000Y-138112500D02*
G75*
G03X179705000Y-139382500I0J-1270000D01*
G01*
X192405000Y-148272500D02*
G75*
G03X193675000Y-147002500I0J1270000D01*
G01*
X193675000Y-139382500D02*
G75*
G03X192405000Y-138112500I-1270000J0D01*
G01*
X189865000Y-150812500D02*
X183515000Y-150812500D01*
X189865000Y-135572500D02*
X183515000Y-135572500D01*
X189865000Y-135572500D02*
X189865000Y-150812500D01*
X183515000Y-150812500D02*
X183515000Y-135572500D01*
X250197460Y-124746900D02*
X250197460Y-116046900D01*
X243792460Y-124746900D02*
X243792460Y-116046900D01*
X243792460Y-116046900D02*
X250197460Y-116046900D01*
X248967460Y-116046900D02*
X248967460Y-124746900D01*
X250197460Y-124746900D02*
X243792460Y-124746900D01*
X164180000Y-115310000D02*
X164180000Y-113532000D01*
X164180000Y-128010000D02*
X164180000Y-129788000D01*
X164180000Y-126660000D02*
X163010000Y-126660000D01*
X164110000Y-116660000D02*
X163010000Y-116660000D01*
X164180000Y-125390000D02*
X164180000Y-126660000D01*
X164180000Y-116660000D02*
X164180000Y-117930000D01*
X164180000Y-117930000D02*
X165450000Y-117930000D01*
X165450000Y-117930000D02*
X165450000Y-125390000D01*
X165450000Y-125390000D02*
X164180000Y-125390000D01*
X175710000Y-115660000D02*
X162924000Y-115660000D01*
X175710000Y-127664000D02*
X162924000Y-127664000D01*
X162910000Y-115660000D02*
X162924000Y-127660000D01*
X175710000Y-115660000D02*
X175710000Y-127660000D01*
X164180000Y-132430000D02*
X164180000Y-130652000D01*
X164180000Y-145130000D02*
X164180000Y-146908000D01*
X164180000Y-143780000D02*
X163010000Y-143780000D01*
X164110000Y-133780000D02*
X163010000Y-133780000D01*
X164180000Y-142510000D02*
X164180000Y-143780000D01*
X164180000Y-133780000D02*
X164180000Y-135050000D01*
X164180000Y-135050000D02*
X165450000Y-135050000D01*
X165450000Y-135050000D02*
X165450000Y-142510000D01*
X165450000Y-142510000D02*
X164180000Y-142510000D01*
X175710000Y-132780000D02*
X162924000Y-132780000D01*
X175710000Y-144784000D02*
X162924000Y-144784000D01*
X162910000Y-132780000D02*
X162924000Y-144780000D01*
X175710000Y-132780000D02*
X175710000Y-144780000D01*
X219019120Y-127193040D02*
X219019120Y-132394960D01*
X221416880Y-132394960D02*
X221416880Y-127193040D01*
X222516700Y-125194060D02*
X221416880Y-125194060D01*
X222016320Y-124594620D02*
X222016320Y-125793500D01*
X221416880Y-125798580D02*
X219019120Y-125798580D01*
X200152000Y-170180000D02*
X205232000Y-170180000D01*
X205232000Y-170180000D02*
X205232000Y-167640000D01*
X205232000Y-167640000D02*
X200152000Y-167640000D01*
X197332000Y-167360000D02*
X198882000Y-167360000D01*
X200152000Y-167640000D02*
X200152000Y-170180000D01*
X198882000Y-170460000D02*
X197332000Y-170460000D01*
X197332000Y-170460000D02*
X197332000Y-167360000D01*
X180013095Y-150522381D02*
X180013095Y-151331905D01*
X180060714Y-151427143D01*
X180108333Y-151474762D01*
X180203571Y-151522381D01*
X180394048Y-151522381D01*
X180489286Y-151474762D01*
X180536905Y-151427143D01*
X180584524Y-151331905D01*
X180584524Y-150522381D01*
X180965476Y-150522381D02*
X181584524Y-150522381D01*
X181251190Y-150903333D01*
X181394048Y-150903333D01*
X181489286Y-150950952D01*
X181536905Y-150998571D01*
X181584524Y-151093810D01*
X181584524Y-151331905D01*
X181536905Y-151427143D01*
X181489286Y-151474762D01*
X181394048Y-151522381D01*
X181108333Y-151522381D01*
X181013095Y-151474762D01*
X180965476Y-151427143D01*
X210589905Y-166822381D02*
X210589905Y-165822381D01*
X210970858Y-165822381D01*
X211066096Y-165870000D01*
X211113715Y-165917619D01*
X211161334Y-166012857D01*
X211161334Y-166155714D01*
X211113715Y-166250952D01*
X211066096Y-166298571D01*
X210970858Y-166346190D01*
X210589905Y-166346190D01*
X211542286Y-165917619D02*
X211589905Y-165870000D01*
X211685143Y-165822381D01*
X211923239Y-165822381D01*
X212018477Y-165870000D01*
X212066096Y-165917619D01*
X212113715Y-166012857D01*
X212113715Y-166108095D01*
X212066096Y-166250952D01*
X211494667Y-166822381D01*
X212113715Y-166822381D01*
X215415905Y-114498381D02*
X215415905Y-113498381D01*
X215654000Y-113498381D01*
X215796858Y-113546000D01*
X215892096Y-113641238D01*
X215939715Y-113736476D01*
X215987334Y-113926952D01*
X215987334Y-114069810D01*
X215939715Y-114260286D01*
X215892096Y-114355524D01*
X215796858Y-114450762D01*
X215654000Y-114498381D01*
X215415905Y-114498381D01*
X216844477Y-113831714D02*
X216844477Y-114498381D01*
X216606381Y-113450762D02*
X216368286Y-114165048D01*
X216987334Y-114165048D01*
X246292381Y-151868095D02*
X245292381Y-151868095D01*
X245292381Y-151630000D01*
X245340000Y-151487142D01*
X245435238Y-151391904D01*
X245530476Y-151344285D01*
X245720952Y-151296666D01*
X245863810Y-151296666D01*
X246054286Y-151344285D01*
X246149524Y-151391904D01*
X246244762Y-151487142D01*
X246292381Y-151630000D01*
X246292381Y-151868095D01*
X245720952Y-150725238D02*
X245673333Y-150820476D01*
X245625714Y-150868095D01*
X245530476Y-150915714D01*
X245482857Y-150915714D01*
X245387619Y-150868095D01*
X245340000Y-150820476D01*
X245292381Y-150725238D01*
X245292381Y-150534761D01*
X245340000Y-150439523D01*
X245387619Y-150391904D01*
X245482857Y-150344285D01*
X245530476Y-150344285D01*
X245625714Y-150391904D01*
X245673333Y-150439523D01*
X245720952Y-150534761D01*
X245720952Y-150725238D01*
X245768571Y-150820476D01*
X245816190Y-150868095D01*
X245911429Y-150915714D01*
X246101905Y-150915714D01*
X246197143Y-150868095D01*
X246244762Y-150820476D01*
X246292381Y-150725238D01*
X246292381Y-150534761D01*
X246244762Y-150439523D01*
X246197143Y-150391904D01*
X246101905Y-150344285D01*
X245911429Y-150344285D01*
X245816190Y-150391904D01*
X245768571Y-150439523D01*
X245720952Y-150534761D01*
X195739143Y-142446666D02*
X195786762Y-142494285D01*
X195834381Y-142637142D01*
X195834381Y-142732380D01*
X195786762Y-142875238D01*
X195691524Y-142970476D01*
X195596286Y-143018095D01*
X195405810Y-143065714D01*
X195262952Y-143065714D01*
X195072476Y-143018095D01*
X194977238Y-142970476D01*
X194882000Y-142875238D01*
X194834381Y-142732380D01*
X194834381Y-142637142D01*
X194882000Y-142494285D01*
X194929619Y-142446666D01*
X194834381Y-141589523D02*
X194834381Y-141780000D01*
X194882000Y-141875238D01*
X194929619Y-141922857D01*
X195072476Y-142018095D01*
X195262952Y-142065714D01*
X195643905Y-142065714D01*
X195739143Y-142018095D01*
X195786762Y-141970476D01*
X195834381Y-141875238D01*
X195834381Y-141684761D01*
X195786762Y-141589523D01*
X195739143Y-141541904D01*
X195643905Y-141494285D01*
X195405810Y-141494285D01*
X195310571Y-141541904D01*
X195262952Y-141589523D01*
X195215333Y-141684761D01*
X195215333Y-141875238D01*
X195262952Y-141970476D01*
X195310571Y-142018095D01*
X195405810Y-142065714D01*
X208327143Y-142446666D02*
X208374762Y-142494285D01*
X208422381Y-142637142D01*
X208422381Y-142732380D01*
X208374762Y-142875238D01*
X208279524Y-142970476D01*
X208184286Y-143018095D01*
X207993810Y-143065714D01*
X207850952Y-143065714D01*
X207660476Y-143018095D01*
X207565238Y-142970476D01*
X207470000Y-142875238D01*
X207422381Y-142732380D01*
X207422381Y-142637142D01*
X207470000Y-142494285D01*
X207517619Y-142446666D01*
X207422381Y-141541904D02*
X207422381Y-142018095D01*
X207898571Y-142065714D01*
X207850952Y-142018095D01*
X207803333Y-141922857D01*
X207803333Y-141684761D01*
X207850952Y-141589523D01*
X207898571Y-141541904D01*
X207993810Y-141494285D01*
X208231905Y-141494285D01*
X208327143Y-141541904D01*
X208374762Y-141589523D01*
X208422381Y-141684761D01*
X208422381Y-141922857D01*
X208374762Y-142018095D01*
X208327143Y-142065714D01*
X212542381Y-137834666D02*
X212066190Y-138168000D01*
X212542381Y-138406095D02*
X211542381Y-138406095D01*
X211542381Y-138025142D01*
X211590000Y-137929904D01*
X211637619Y-137882285D01*
X211732857Y-137834666D01*
X211875714Y-137834666D01*
X211970952Y-137882285D01*
X212018571Y-137929904D01*
X212066190Y-138025142D01*
X212066190Y-138406095D01*
X211875714Y-136977523D02*
X212542381Y-136977523D01*
X211494762Y-137215619D02*
X212209048Y-137453714D01*
X212209048Y-136834666D01*
X216352381Y-137866666D02*
X215876190Y-138200000D01*
X216352381Y-138438095D02*
X215352381Y-138438095D01*
X215352381Y-138057142D01*
X215400000Y-137961904D01*
X215447619Y-137914285D01*
X215542857Y-137866666D01*
X215685714Y-137866666D01*
X215780952Y-137914285D01*
X215828571Y-137961904D01*
X215876190Y-138057142D01*
X215876190Y-138438095D01*
X215352381Y-137533333D02*
X215352381Y-136914285D01*
X215733333Y-137247619D01*
X215733333Y-137104761D01*
X215780952Y-137009523D01*
X215828571Y-136961904D01*
X215923810Y-136914285D01*
X216161905Y-136914285D01*
X216257143Y-136961904D01*
X216304762Y-137009523D01*
X216352381Y-137104761D01*
X216352381Y-137390476D01*
X216304762Y-137485714D01*
X216257143Y-137533333D01*
X242147381Y-151772857D02*
X241671190Y-152106191D01*
X242147381Y-152344286D02*
X241147381Y-152344286D01*
X241147381Y-151963333D01*
X241195000Y-151868095D01*
X241242619Y-151820476D01*
X241337857Y-151772857D01*
X241480714Y-151772857D01*
X241575952Y-151820476D01*
X241623571Y-151868095D01*
X241671190Y-151963333D01*
X241671190Y-152344286D01*
X242147381Y-150820476D02*
X242147381Y-151391905D01*
X242147381Y-151106191D02*
X241147381Y-151106191D01*
X241290238Y-151201429D01*
X241385476Y-151296667D01*
X241433095Y-151391905D01*
X241147381Y-150201429D02*
X241147381Y-150106190D01*
X241195000Y-150010952D01*
X241242619Y-149963333D01*
X241337857Y-149915714D01*
X241528333Y-149868095D01*
X241766429Y-149868095D01*
X241956905Y-149915714D01*
X242052143Y-149963333D01*
X242099762Y-150010952D01*
X242147381Y-150106190D01*
X242147381Y-150201429D01*
X242099762Y-150296667D01*
X242052143Y-150344286D01*
X241956905Y-150391905D01*
X241766429Y-150439524D01*
X241528333Y-150439524D01*
X241337857Y-150391905D01*
X241242619Y-150344286D01*
X241195000Y-150296667D01*
X241147381Y-150201429D01*
X216019143Y-158599143D02*
X215971524Y-158646762D01*
X215828667Y-158694381D01*
X215733429Y-158694381D01*
X215590571Y-158646762D01*
X215495333Y-158551524D01*
X215447714Y-158456286D01*
X215400095Y-158265810D01*
X215400095Y-158122952D01*
X215447714Y-157932476D01*
X215495333Y-157837238D01*
X215590571Y-157742000D01*
X215733429Y-157694381D01*
X215828667Y-157694381D01*
X215971524Y-157742000D01*
X216019143Y-157789619D01*
X216971524Y-158694381D02*
X216400095Y-158694381D01*
X216685809Y-158694381D02*
X216685809Y-157694381D01*
X216590571Y-157837238D01*
X216495333Y-157932476D01*
X216400095Y-157980095D01*
X217876286Y-157694381D02*
X217400095Y-157694381D01*
X217352476Y-158170571D01*
X217400095Y-158122952D01*
X217495333Y-158075333D01*
X217733429Y-158075333D01*
X217828667Y-158122952D01*
X217876286Y-158170571D01*
X217923905Y-158265810D01*
X217923905Y-158503905D01*
X217876286Y-158599143D01*
X217828667Y-158646762D01*
X217733429Y-158694381D01*
X217495333Y-158694381D01*
X217400095Y-158646762D01*
X217352476Y-158599143D01*
X216019143Y-164695143D02*
X215971524Y-164742762D01*
X215828667Y-164790381D01*
X215733429Y-164790381D01*
X215590571Y-164742762D01*
X215495333Y-164647524D01*
X215447714Y-164552286D01*
X215400095Y-164361810D01*
X215400095Y-164218952D01*
X215447714Y-164028476D01*
X215495333Y-163933238D01*
X215590571Y-163838000D01*
X215733429Y-163790381D01*
X215828667Y-163790381D01*
X215971524Y-163838000D01*
X216019143Y-163885619D01*
X216971524Y-164790381D02*
X216400095Y-164790381D01*
X216685809Y-164790381D02*
X216685809Y-163790381D01*
X216590571Y-163933238D01*
X216495333Y-164028476D01*
X216400095Y-164076095D01*
X217828667Y-164123714D02*
X217828667Y-164790381D01*
X217590571Y-163742762D02*
X217352476Y-164457048D01*
X217971524Y-164457048D01*
X239387143Y-137322143D02*
X239339524Y-137369762D01*
X239196667Y-137417381D01*
X239101429Y-137417381D01*
X238958571Y-137369762D01*
X238863333Y-137274524D01*
X238815714Y-137179286D01*
X238768095Y-136988810D01*
X238768095Y-136845952D01*
X238815714Y-136655476D01*
X238863333Y-136560238D01*
X238958571Y-136465000D01*
X239101429Y-136417381D01*
X239196667Y-136417381D01*
X239339524Y-136465000D01*
X239387143Y-136512619D01*
X240339524Y-137417381D02*
X239768095Y-137417381D01*
X240053809Y-137417381D02*
X240053809Y-136417381D01*
X239958571Y-136560238D01*
X239863333Y-136655476D01*
X239768095Y-136703095D01*
X241291905Y-137417381D02*
X240720476Y-137417381D01*
X241006190Y-137417381D02*
X241006190Y-136417381D01*
X240910952Y-136560238D01*
X240815714Y-136655476D01*
X240720476Y-136703095D01*
X239387143Y-142402143D02*
X239339524Y-142449762D01*
X239196667Y-142497381D01*
X239101429Y-142497381D01*
X238958571Y-142449762D01*
X238863333Y-142354524D01*
X238815714Y-142259286D01*
X238768095Y-142068810D01*
X238768095Y-141925952D01*
X238815714Y-141735476D01*
X238863333Y-141640238D01*
X238958571Y-141545000D01*
X239101429Y-141497381D01*
X239196667Y-141497381D01*
X239339524Y-141545000D01*
X239387143Y-141592619D01*
X240339524Y-142497381D02*
X239768095Y-142497381D01*
X240053809Y-142497381D02*
X240053809Y-141497381D01*
X239958571Y-141640238D01*
X239863333Y-141735476D01*
X239768095Y-141783095D01*
X240958571Y-141497381D02*
X241053810Y-141497381D01*
X241149048Y-141545000D01*
X241196667Y-141592619D01*
X241244286Y-141687857D01*
X241291905Y-141878333D01*
X241291905Y-142116429D01*
X241244286Y-142306905D01*
X241196667Y-142402143D01*
X241149048Y-142449762D01*
X241053810Y-142497381D01*
X240958571Y-142497381D01*
X240863333Y-142449762D01*
X240815714Y-142402143D01*
X240768095Y-142306905D01*
X240720476Y-142116429D01*
X240720476Y-141878333D01*
X240768095Y-141687857D01*
X240815714Y-141592619D01*
X240863333Y-141545000D01*
X240958571Y-141497381D01*
X196683334Y-150725143D02*
X196635715Y-150772762D01*
X196492858Y-150820381D01*
X196397620Y-150820381D01*
X196254762Y-150772762D01*
X196159524Y-150677524D01*
X196111905Y-150582286D01*
X196064286Y-150391810D01*
X196064286Y-150248952D01*
X196111905Y-150058476D01*
X196159524Y-149963238D01*
X196254762Y-149868000D01*
X196397620Y-149820381D01*
X196492858Y-149820381D01*
X196635715Y-149868000D01*
X196683334Y-149915619D01*
X197016667Y-149820381D02*
X197683334Y-149820381D01*
X197254762Y-150820381D01*
X213701334Y-150725143D02*
X213653715Y-150772762D01*
X213510858Y-150820381D01*
X213415620Y-150820381D01*
X213272762Y-150772762D01*
X213177524Y-150677524D01*
X213129905Y-150582286D01*
X213082286Y-150391810D01*
X213082286Y-150248952D01*
X213129905Y-150058476D01*
X213177524Y-149963238D01*
X213272762Y-149868000D01*
X213415620Y-149820381D01*
X213510858Y-149820381D01*
X213653715Y-149868000D01*
X213701334Y-149915619D01*
X214558477Y-150153714D02*
X214558477Y-150820381D01*
X214320381Y-149772762D02*
X214082286Y-150487048D01*
X214701334Y-150487048D01*
X223496190Y-159226191D02*
X223972381Y-159226191D01*
X222972381Y-159559524D02*
X223496190Y-159226191D01*
X222972381Y-158892857D01*
X223067619Y-158607143D02*
X223020000Y-158559524D01*
X222972381Y-158464286D01*
X222972381Y-158226190D01*
X223020000Y-158130952D01*
X223067619Y-158083333D01*
X223162857Y-158035714D01*
X223258095Y-158035714D01*
X223400952Y-158083333D01*
X223972381Y-158654762D01*
X223972381Y-158035714D01*
X234291190Y-142081191D02*
X234767381Y-142081191D01*
X233767381Y-142414524D02*
X234291190Y-142081191D01*
X233767381Y-141747857D01*
X234767381Y-140890714D02*
X234767381Y-141462143D01*
X234767381Y-141176429D02*
X233767381Y-141176429D01*
X233910238Y-141271667D01*
X234005476Y-141366905D01*
X234053095Y-141462143D01*
X237717381Y-126491905D02*
X238526905Y-126491905D01*
X238622143Y-126444286D01*
X238669762Y-126396667D01*
X238717381Y-126301429D01*
X238717381Y-126110952D01*
X238669762Y-126015714D01*
X238622143Y-125968095D01*
X238526905Y-125920476D01*
X237717381Y-125920476D01*
X237812619Y-125491905D02*
X237765000Y-125444286D01*
X237717381Y-125349048D01*
X237717381Y-125110952D01*
X237765000Y-125015714D01*
X237812619Y-124968095D01*
X237907857Y-124920476D01*
X238003095Y-124920476D01*
X238145952Y-124968095D01*
X238717381Y-125539524D01*
X238717381Y-124920476D01*
X207518095Y-152360381D02*
X207518095Y-153169905D01*
X207565714Y-153265143D01*
X207613333Y-153312762D01*
X207708571Y-153360381D01*
X207899048Y-153360381D01*
X207994286Y-153312762D01*
X208041905Y-153265143D01*
X208089524Y-153169905D01*
X208089524Y-152360381D01*
X209089524Y-153360381D02*
X208518095Y-153360381D01*
X208803809Y-153360381D02*
X208803809Y-152360381D01*
X208708571Y-152503238D01*
X208613333Y-152598476D01*
X208518095Y-152646095D01*
X189166667Y-157884762D02*
X189309524Y-157932381D01*
X189547620Y-157932381D01*
X189642858Y-157884762D01*
X189690477Y-157837143D01*
X189738096Y-157741905D01*
X189738096Y-157646667D01*
X189690477Y-157551429D01*
X189642858Y-157503810D01*
X189547620Y-157456190D01*
X189357143Y-157408571D01*
X189261905Y-157360952D01*
X189214286Y-157313333D01*
X189166667Y-157218095D01*
X189166667Y-157122857D01*
X189214286Y-157027619D01*
X189261905Y-156980000D01*
X189357143Y-156932381D01*
X189595239Y-156932381D01*
X189738096Y-156980000D01*
X190071429Y-156932381D02*
X190309524Y-157932381D01*
X190500001Y-157218095D01*
X190690477Y-157932381D01*
X190928572Y-156932381D01*
X191214286Y-156932381D02*
X191833334Y-156932381D01*
X191500000Y-157313333D01*
X191642858Y-157313333D01*
X191738096Y-157360952D01*
X191785715Y-157408571D01*
X191833334Y-157503810D01*
X191833334Y-157741905D01*
X191785715Y-157837143D01*
X191738096Y-157884762D01*
X191642858Y-157932381D01*
X191357143Y-157932381D01*
X191261905Y-157884762D01*
X191214286Y-157837143D01*
X241236667Y-168044762D02*
X241379524Y-168092381D01*
X241617620Y-168092381D01*
X241712858Y-168044762D01*
X241760477Y-167997143D01*
X241808096Y-167901905D01*
X241808096Y-167806667D01*
X241760477Y-167711429D01*
X241712858Y-167663810D01*
X241617620Y-167616190D01*
X241427143Y-167568571D01*
X241331905Y-167520952D01*
X241284286Y-167473333D01*
X241236667Y-167378095D01*
X241236667Y-167282857D01*
X241284286Y-167187619D01*
X241331905Y-167140000D01*
X241427143Y-167092381D01*
X241665239Y-167092381D01*
X241808096Y-167140000D01*
X242141429Y-167092381D02*
X242379524Y-168092381D01*
X242570001Y-167378095D01*
X242760477Y-168092381D01*
X242998572Y-167092381D01*
X243331905Y-167187619D02*
X243379524Y-167140000D01*
X243474762Y-167092381D01*
X243712858Y-167092381D01*
X243808096Y-167140000D01*
X243855715Y-167187619D01*
X243903334Y-167282857D01*
X243903334Y-167378095D01*
X243855715Y-167520952D01*
X243284286Y-168092381D01*
X243903334Y-168092381D01*
X189166667Y-168552762D02*
X189309524Y-168600381D01*
X189547620Y-168600381D01*
X189642858Y-168552762D01*
X189690477Y-168505143D01*
X189738096Y-168409905D01*
X189738096Y-168314667D01*
X189690477Y-168219429D01*
X189642858Y-168171810D01*
X189547620Y-168124190D01*
X189357143Y-168076571D01*
X189261905Y-168028952D01*
X189214286Y-167981333D01*
X189166667Y-167886095D01*
X189166667Y-167790857D01*
X189214286Y-167695619D01*
X189261905Y-167648000D01*
X189357143Y-167600381D01*
X189595239Y-167600381D01*
X189738096Y-167648000D01*
X190071429Y-167600381D02*
X190309524Y-168600381D01*
X190500001Y-167886095D01*
X190690477Y-168600381D01*
X190928572Y-167600381D01*
X191833334Y-168600381D02*
X191261905Y-168600381D01*
X191547619Y-168600381D02*
X191547619Y-167600381D01*
X191452381Y-167743238D01*
X191357143Y-167838476D01*
X191261905Y-167886095D01*
X223432762Y-114498381D02*
X223099428Y-114022190D01*
X222861333Y-114498381D02*
X222861333Y-113498381D01*
X223242286Y-113498381D01*
X223337524Y-113546000D01*
X223385143Y-113593619D01*
X223432762Y-113688857D01*
X223432762Y-113831714D01*
X223385143Y-113926952D01*
X223337524Y-113974571D01*
X223242286Y-114022190D01*
X222861333Y-114022190D01*
X223718476Y-113498381D02*
X224051809Y-114498381D01*
X224385143Y-113498381D01*
X225242286Y-114498381D02*
X224670857Y-114498381D01*
X224956571Y-114498381D02*
X224956571Y-113498381D01*
X224861333Y-113641238D01*
X224766095Y-113736476D01*
X224670857Y-113784095D01*
X230671810Y-172664381D02*
X230671810Y-171664381D01*
X231719429Y-172569143D02*
X231671810Y-172616762D01*
X231528953Y-172664381D01*
X231433715Y-172664381D01*
X231290857Y-172616762D01*
X231195619Y-172521524D01*
X231148000Y-172426286D01*
X231100381Y-172235810D01*
X231100381Y-172092952D01*
X231148000Y-171902476D01*
X231195619Y-171807238D01*
X231290857Y-171712000D01*
X231433715Y-171664381D01*
X231528953Y-171664381D01*
X231671810Y-171712000D01*
X231719429Y-171759619D01*
X232052762Y-171664381D02*
X232671810Y-171664381D01*
X232338476Y-172045333D01*
X232481334Y-172045333D01*
X232576572Y-172092952D01*
X232624191Y-172140571D01*
X232671810Y-172235810D01*
X232671810Y-172473905D01*
X232624191Y-172569143D01*
X232576572Y-172616762D01*
X232481334Y-172664381D01*
X232195619Y-172664381D01*
X232100381Y-172616762D01*
X232052762Y-172569143D01*
X223559810Y-150058381D02*
X223559810Y-149058381D01*
X224607429Y-149963143D02*
X224559810Y-150010762D01*
X224416953Y-150058381D01*
X224321715Y-150058381D01*
X224178857Y-150010762D01*
X224083619Y-149915524D01*
X224036000Y-149820286D01*
X223988381Y-149629810D01*
X223988381Y-149486952D01*
X224036000Y-149296476D01*
X224083619Y-149201238D01*
X224178857Y-149106000D01*
X224321715Y-149058381D01*
X224416953Y-149058381D01*
X224559810Y-149106000D01*
X224607429Y-149153619D01*
X224988381Y-149153619D02*
X225036000Y-149106000D01*
X225131238Y-149058381D01*
X225369334Y-149058381D01*
X225464572Y-149106000D01*
X225512191Y-149153619D01*
X225559810Y-149248857D01*
X225559810Y-149344095D01*
X225512191Y-149486952D01*
X224940762Y-150058381D01*
X225559810Y-150058381D01*
X242006381Y-116292190D02*
X241006381Y-116292190D01*
X241911143Y-115244571D02*
X241958762Y-115292190D01*
X242006381Y-115435047D01*
X242006381Y-115530285D01*
X241958762Y-115673143D01*
X241863524Y-115768381D01*
X241768286Y-115816000D01*
X241577810Y-115863619D01*
X241434952Y-115863619D01*
X241244476Y-115816000D01*
X241149238Y-115768381D01*
X241054000Y-115673143D01*
X241006381Y-115530285D01*
X241006381Y-115435047D01*
X241054000Y-115292190D01*
X241101619Y-115244571D01*
X242006381Y-114292190D02*
X242006381Y-114863619D01*
X242006381Y-114577905D02*
X241006381Y-114577905D01*
X241149238Y-114673143D01*
X241244476Y-114768381D01*
X241292095Y-114863619D01*
X204239905Y-164028381D02*
X204239905Y-163028381D01*
X204478000Y-163028381D01*
X204620858Y-163076000D01*
X204716096Y-163171238D01*
X204763715Y-163266476D01*
X204811334Y-163456952D01*
X204811334Y-163599810D01*
X204763715Y-163790286D01*
X204716096Y-163885524D01*
X204620858Y-163980762D01*
X204478000Y-164028381D01*
X204239905Y-164028381D01*
X205144667Y-163028381D02*
X205811334Y-163028381D01*
X205382762Y-164028381D01*
X199413905Y-135326381D02*
X199413905Y-134326381D01*
X199652000Y-134326381D01*
X199794858Y-134374000D01*
X199890096Y-134469238D01*
X199937715Y-134564476D01*
X199985334Y-134754952D01*
X199985334Y-134897810D01*
X199937715Y-135088286D01*
X199890096Y-135183524D01*
X199794858Y-135278762D01*
X199652000Y-135326381D01*
X199413905Y-135326381D01*
X200842477Y-134326381D02*
X200652000Y-134326381D01*
X200556762Y-134374000D01*
X200509143Y-134421619D01*
X200413905Y-134564476D01*
X200366286Y-134754952D01*
X200366286Y-135135905D01*
X200413905Y-135231143D01*
X200461524Y-135278762D01*
X200556762Y-135326381D01*
X200747239Y-135326381D01*
X200842477Y-135278762D01*
X200890096Y-135231143D01*
X200937715Y-135135905D01*
X200937715Y-134897810D01*
X200890096Y-134802571D01*
X200842477Y-134754952D01*
X200747239Y-134707333D01*
X200556762Y-134707333D01*
X200461524Y-134754952D01*
X200413905Y-134802571D01*
X200366286Y-134897810D01*
X199413905Y-131262381D02*
X199413905Y-130262381D01*
X199652000Y-130262381D01*
X199794858Y-130310000D01*
X199890096Y-130405238D01*
X199937715Y-130500476D01*
X199985334Y-130690952D01*
X199985334Y-130833810D01*
X199937715Y-131024286D01*
X199890096Y-131119524D01*
X199794858Y-131214762D01*
X199652000Y-131262381D01*
X199413905Y-131262381D01*
X200890096Y-130262381D02*
X200413905Y-130262381D01*
X200366286Y-130738571D01*
X200413905Y-130690952D01*
X200509143Y-130643333D01*
X200747239Y-130643333D01*
X200842477Y-130690952D01*
X200890096Y-130738571D01*
X200937715Y-130833810D01*
X200937715Y-131071905D01*
X200890096Y-131167143D01*
X200842477Y-131214762D01*
X200747239Y-131262381D01*
X200509143Y-131262381D01*
X200413905Y-131214762D01*
X200366286Y-131167143D01*
X207287905Y-114498381D02*
X207287905Y-113498381D01*
X207526000Y-113498381D01*
X207668858Y-113546000D01*
X207764096Y-113641238D01*
X207811715Y-113736476D01*
X207859334Y-113926952D01*
X207859334Y-114069810D01*
X207811715Y-114260286D01*
X207764096Y-114355524D01*
X207668858Y-114450762D01*
X207526000Y-114498381D01*
X207287905Y-114498381D01*
X208192667Y-113498381D02*
X208811715Y-113498381D01*
X208478381Y-113879333D01*
X208621239Y-113879333D01*
X208716477Y-113926952D01*
X208764096Y-113974571D01*
X208811715Y-114069810D01*
X208811715Y-114307905D01*
X208764096Y-114403143D01*
X208716477Y-114450762D01*
X208621239Y-114498381D01*
X208335524Y-114498381D01*
X208240286Y-114450762D01*
X208192667Y-114403143D01*
X211605905Y-114498381D02*
X211605905Y-113498381D01*
X211844000Y-113498381D01*
X211986858Y-113546000D01*
X212082096Y-113641238D01*
X212129715Y-113736476D01*
X212177334Y-113926952D01*
X212177334Y-114069810D01*
X212129715Y-114260286D01*
X212082096Y-114355524D01*
X211986858Y-114450762D01*
X211844000Y-114498381D01*
X211605905Y-114498381D01*
X212558286Y-113593619D02*
X212605905Y-113546000D01*
X212701143Y-113498381D01*
X212939239Y-113498381D01*
X213034477Y-113546000D01*
X213082096Y-113593619D01*
X213129715Y-113688857D01*
X213129715Y-113784095D01*
X213082096Y-113926952D01*
X212510667Y-114498381D01*
X213129715Y-114498381D01*
X238101143Y-159964285D02*
X238148762Y-160011904D01*
X238196381Y-160154761D01*
X238196381Y-160249999D01*
X238148762Y-160392857D01*
X238053524Y-160488095D01*
X237958286Y-160535714D01*
X237767810Y-160583333D01*
X237624952Y-160583333D01*
X237434476Y-160535714D01*
X237339238Y-160488095D01*
X237244000Y-160392857D01*
X237196381Y-160249999D01*
X237196381Y-160154761D01*
X237244000Y-160011904D01*
X237291619Y-159964285D01*
X237196381Y-159345238D02*
X237196381Y-159154761D01*
X237244000Y-159059523D01*
X237339238Y-158964285D01*
X237529714Y-158916666D01*
X237863048Y-158916666D01*
X238053524Y-158964285D01*
X238148762Y-159059523D01*
X238196381Y-159154761D01*
X238196381Y-159345238D01*
X238148762Y-159440476D01*
X238053524Y-159535714D01*
X237863048Y-159583333D01*
X237529714Y-159583333D01*
X237339238Y-159535714D01*
X237244000Y-159440476D01*
X237196381Y-159345238D01*
X238196381Y-158488095D02*
X237196381Y-158488095D01*
X238196381Y-157916666D01*
X237196381Y-157916666D01*
X238196381Y-156916666D02*
X238196381Y-157488095D01*
X238196381Y-157202381D02*
X237196381Y-157202381D01*
X237339238Y-157297619D01*
X237434476Y-157392857D01*
X237482095Y-157488095D01*
X187673334Y-127103143D02*
X187625715Y-127150762D01*
X187482858Y-127198381D01*
X187387620Y-127198381D01*
X187244762Y-127150762D01*
X187149524Y-127055524D01*
X187101905Y-126960286D01*
X187054286Y-126769810D01*
X187054286Y-126626952D01*
X187101905Y-126436476D01*
X187149524Y-126341238D01*
X187244762Y-126246000D01*
X187387620Y-126198381D01*
X187482858Y-126198381D01*
X187625715Y-126246000D01*
X187673334Y-126293619D01*
X188006667Y-126198381D02*
X188625715Y-126198381D01*
X188292381Y-126579333D01*
X188435239Y-126579333D01*
X188530477Y-126626952D01*
X188578096Y-126674571D01*
X188625715Y-126769810D01*
X188625715Y-127007905D01*
X188578096Y-127103143D01*
X188530477Y-127150762D01*
X188435239Y-127198381D01*
X188149524Y-127198381D01*
X188054286Y-127150762D01*
X188006667Y-127103143D01*
X186523334Y-120499143D02*
X186475715Y-120546762D01*
X186332858Y-120594381D01*
X186237620Y-120594381D01*
X186094762Y-120546762D01*
X185999524Y-120451524D01*
X185951905Y-120356286D01*
X185904286Y-120165810D01*
X185904286Y-120022952D01*
X185951905Y-119832476D01*
X185999524Y-119737238D01*
X186094762Y-119642000D01*
X186237620Y-119594381D01*
X186332858Y-119594381D01*
X186475715Y-119642000D01*
X186523334Y-119689619D01*
X186904286Y-119689619D02*
X186951905Y-119642000D01*
X187047143Y-119594381D01*
X187285239Y-119594381D01*
X187380477Y-119642000D01*
X187428096Y-119689619D01*
X187475715Y-119784857D01*
X187475715Y-119880095D01*
X187428096Y-120022952D01*
X186856667Y-120594381D01*
X187475715Y-120594381D01*
X186588334Y-114149143D02*
X186540715Y-114196762D01*
X186397858Y-114244381D01*
X186302620Y-114244381D01*
X186159762Y-114196762D01*
X186064524Y-114101524D01*
X186016905Y-114006286D01*
X185969286Y-113815810D01*
X185969286Y-113672952D01*
X186016905Y-113482476D01*
X186064524Y-113387238D01*
X186159762Y-113292000D01*
X186302620Y-113244381D01*
X186397858Y-113244381D01*
X186540715Y-113292000D01*
X186588334Y-113339619D01*
X187540715Y-114244381D02*
X186969286Y-114244381D01*
X187255000Y-114244381D02*
X187255000Y-113244381D01*
X187159762Y-113387238D01*
X187064524Y-113482476D01*
X186969286Y-113530095D01*
X198651905Y-114752381D02*
X198651905Y-113752381D01*
X198890000Y-113752381D01*
X199032858Y-113800000D01*
X199128096Y-113895238D01*
X199175715Y-113990476D01*
X199223334Y-114180952D01*
X199223334Y-114323810D01*
X199175715Y-114514286D01*
X199128096Y-114609524D01*
X199032858Y-114704762D01*
X198890000Y-114752381D01*
X198651905Y-114752381D01*
X200175715Y-114752381D02*
X199604286Y-114752381D01*
X199890000Y-114752381D02*
X199890000Y-113752381D01*
X199794762Y-113895238D01*
X199699524Y-113990476D01*
X199604286Y-114038095D01*
X198191429Y-123451905D02*
X198143810Y-123404286D01*
X198096190Y-123309048D01*
X198191429Y-123118572D01*
X198143810Y-123023333D01*
X198096190Y-122975714D01*
X200731429Y-118371905D02*
X200683810Y-118324286D01*
X200636190Y-118229048D01*
X200731429Y-118038572D01*
X200683810Y-117943333D01*
X200636190Y-117895714D01*
X198191429Y-118490952D02*
X198191429Y-117729047D01*
X200731429Y-123570952D02*
X200731429Y-122809047D01*
X201112381Y-123189999D02*
X200350476Y-123189999D01*
X190754095Y-136104381D02*
X191325524Y-136104381D01*
X191039809Y-137104381D02*
X191039809Y-136104381D01*
X192182667Y-137104381D02*
X191611238Y-137104381D01*
X191896952Y-137104381D02*
X191896952Y-136104381D01*
X191801714Y-136247238D01*
X191706476Y-136342476D01*
X191611238Y-136390095D01*
X177887381Y-145978214D02*
X177887381Y-146168691D01*
X177935000Y-146263929D01*
X177982619Y-146311548D01*
X178125476Y-146406786D01*
X178315952Y-146454405D01*
X178696905Y-146454405D01*
X178792143Y-146406786D01*
X178839762Y-146359167D01*
X178887381Y-146263929D01*
X178887381Y-146073452D01*
X178839762Y-145978214D01*
X178792143Y-145930595D01*
X178696905Y-145882976D01*
X178458810Y-145882976D01*
X178363571Y-145930595D01*
X178315952Y-145978214D01*
X178268333Y-146073452D01*
X178268333Y-146263929D01*
X178315952Y-146359167D01*
X178363571Y-146406786D01*
X178458810Y-146454405D01*
X177887381Y-145263929D02*
X177887381Y-145168690D01*
X177935000Y-145073452D01*
X177982619Y-145025833D01*
X178077857Y-144978214D01*
X178268333Y-144930595D01*
X178506429Y-144930595D01*
X178696905Y-144978214D01*
X178792143Y-145025833D01*
X178839762Y-145073452D01*
X178887381Y-145168690D01*
X178887381Y-145263929D01*
X178839762Y-145359167D01*
X178792143Y-145406786D01*
X178696905Y-145454405D01*
X178506429Y-145502024D01*
X178268333Y-145502024D01*
X178077857Y-145454405D01*
X177982619Y-145406786D01*
X177935000Y-145359167D01*
X177887381Y-145263929D01*
X177887381Y-144311548D02*
X177887381Y-144216309D01*
X177935000Y-144121071D01*
X177982619Y-144073452D01*
X178077857Y-144025833D01*
X178268333Y-143978214D01*
X178506429Y-143978214D01*
X178696905Y-144025833D01*
X178792143Y-144073452D01*
X178839762Y-144121071D01*
X178887381Y-144216309D01*
X178887381Y-144311548D01*
X178839762Y-144406786D01*
X178792143Y-144454405D01*
X178696905Y-144502024D01*
X178506429Y-144549643D01*
X178268333Y-144549643D01*
X178077857Y-144502024D01*
X177982619Y-144454405D01*
X177935000Y-144406786D01*
X177887381Y-144311548D01*
X178363571Y-143549643D02*
X178363571Y-143216309D01*
X178887381Y-143073452D02*
X178887381Y-143549643D01*
X177887381Y-143549643D01*
X177887381Y-143073452D01*
X178887381Y-141359166D02*
X178887381Y-141930595D01*
X178887381Y-141644881D02*
X177887381Y-141644881D01*
X178030238Y-141740119D01*
X178125476Y-141835357D01*
X178173095Y-141930595D01*
X178792143Y-140930595D02*
X178839762Y-140882976D01*
X178887381Y-140930595D01*
X178839762Y-140978214D01*
X178792143Y-140930595D01*
X178887381Y-140930595D01*
X178268333Y-140930595D02*
X178315952Y-140882976D01*
X178363571Y-140930595D01*
X178315952Y-140978214D01*
X178268333Y-140930595D01*
X178363571Y-140930595D01*
X178887381Y-139930595D02*
X178887381Y-140502024D01*
X178887381Y-140216310D02*
X177887381Y-140216310D01*
X178030238Y-140311548D01*
X178125476Y-140406786D01*
X178173095Y-140502024D01*
X243382381Y-121134095D02*
X242382381Y-121134095D01*
X242382381Y-120753142D01*
X242430000Y-120657904D01*
X242477619Y-120610285D01*
X242572857Y-120562666D01*
X242715714Y-120562666D01*
X242810952Y-120610285D01*
X242858571Y-120657904D01*
X242906190Y-120753142D01*
X242906190Y-121134095D01*
X243382381Y-119610285D02*
X243382381Y-120181714D01*
X243382381Y-119896000D02*
X242382381Y-119896000D01*
X242525238Y-119991238D01*
X242620476Y-120086476D01*
X242668095Y-120181714D01*
X176078381Y-121993333D02*
X176792667Y-121993333D01*
X176935524Y-122040953D01*
X177030762Y-122136191D01*
X177078381Y-122279048D01*
X177078381Y-122374286D01*
X177078381Y-120993333D02*
X177078381Y-121564762D01*
X177078381Y-121279048D02*
X176078381Y-121279048D01*
X176221238Y-121374286D01*
X176316476Y-121469524D01*
X176364095Y-121564762D01*
X176078381Y-139113333D02*
X176792667Y-139113333D01*
X176935524Y-139160953D01*
X177030762Y-139256191D01*
X177078381Y-139399048D01*
X177078381Y-139494286D01*
X176173619Y-138684762D02*
X176126000Y-138637143D01*
X176078381Y-138541905D01*
X176078381Y-138303809D01*
X176126000Y-138208571D01*
X176173619Y-138160952D01*
X176268857Y-138113333D01*
X176364095Y-138113333D01*
X176506952Y-138160952D01*
X177078381Y-138732381D01*
X177078381Y-138113333D01*
X218289143Y-132500666D02*
X218336762Y-132548285D01*
X218384381Y-132691142D01*
X218384381Y-132786380D01*
X218336762Y-132929238D01*
X218241524Y-133024476D01*
X218146286Y-133072095D01*
X217955810Y-133119714D01*
X217812952Y-133119714D01*
X217622476Y-133072095D01*
X217527238Y-133024476D01*
X217432000Y-132929238D01*
X217384381Y-132786380D01*
X217384381Y-132691142D01*
X217432000Y-132548285D01*
X217479619Y-132500666D01*
X217812952Y-131929238D02*
X217765333Y-132024476D01*
X217717714Y-132072095D01*
X217622476Y-132119714D01*
X217574857Y-132119714D01*
X217479619Y-132072095D01*
X217432000Y-132024476D01*
X217384381Y-131929238D01*
X217384381Y-131738761D01*
X217432000Y-131643523D01*
X217479619Y-131595904D01*
X217574857Y-131548285D01*
X217622476Y-131548285D01*
X217717714Y-131595904D01*
X217765333Y-131643523D01*
X217812952Y-131738761D01*
X217812952Y-131929238D01*
X217860571Y-132024476D01*
X217908190Y-132072095D01*
X218003429Y-132119714D01*
X218193905Y-132119714D01*
X218289143Y-132072095D01*
X218336762Y-132024476D01*
X218384381Y-131929238D01*
X218384381Y-131738761D01*
X218336762Y-131643523D01*
X218289143Y-131595904D01*
X218193905Y-131548285D01*
X218003429Y-131548285D01*
X217908190Y-131595904D01*
X217860571Y-131643523D01*
X217812952Y-131738761D01*
X222090289Y-125575012D02*
X222090289Y-124813107D01*
X222471241Y-125194059D02*
X221709336Y-125194059D01*
X200588667Y-165822381D02*
X200588667Y-166536667D01*
X200541047Y-166679524D01*
X200445809Y-166774762D01*
X200302952Y-166822381D01*
X200207714Y-166822381D01*
X201064857Y-166822381D02*
X201064857Y-165822381D01*
X201445810Y-165822381D01*
X201541048Y-165870000D01*
X201588667Y-165917619D01*
X201636286Y-166012857D01*
X201636286Y-166155714D01*
X201588667Y-166250952D01*
X201541048Y-166298571D01*
X201445810Y-166346190D01*
X201064857Y-166346190D01*
X202588667Y-166822381D02*
X202017238Y-166822381D01*
X202302952Y-166822381D02*
X202302952Y-165822381D01*
X202207714Y-165965238D01*
X202112476Y-166060476D01*
X202017238Y-166108095D01*
%LPC*%
D14*
X182975000Y-167670000D03*
D15*
X182975000Y-165670000D03*
X182975000Y-163670000D03*
X182975000Y-161670000D03*
X182975000Y-159670000D03*
X182975000Y-157670000D03*
X182975000Y-155670000D03*
X182975000Y-153670000D03*
X167575000Y-153670000D03*
X167675000Y-155670000D03*
X167575000Y-157670000D03*
X167575000Y-159670000D03*
X167575000Y-161670000D03*
X167575000Y-163670000D03*
X167575000Y-165670000D03*
X167575000Y-167670000D03*
D16*
X209042000Y-168910000D03*
D17*
X211582000Y-168910000D03*
X214122000Y-168910000D03*
D18*
X216408000Y-116078000D03*
D19*
X216408000Y-126238000D03*
D20*
X243840000Y-152549860D03*
X243840000Y-149710140D03*
D21*
X198882000Y-144780000D03*
D22*
X198882000Y-139780000D03*
D21*
X204470000Y-139780000D03*
D22*
X204470000Y-144780000D03*
D23*
X212090000Y-144145000D03*
X212090000Y-140145000D03*
X215900000Y-140145000D03*
X215900000Y-144145000D03*
X239395000Y-149130000D03*
X239395000Y-153130000D03*
D24*
X217785000Y-160020000D03*
X215285000Y-160020000D03*
X217785000Y-162560000D03*
X215285000Y-162560000D03*
X238780000Y-139065000D03*
X241280000Y-139065000D03*
X238780000Y-144145000D03*
X241280000Y-144145000D03*
D25*
X200025000Y-151470360D03*
X200025000Y-155869640D03*
X217170000Y-151470360D03*
X217170000Y-155869640D03*
D26*
X223520000Y-161190940D03*
X223520000Y-156309060D03*
X234315000Y-144045940D03*
X234315000Y-139164060D03*
D27*
X233045000Y-125730000D03*
X230505000Y-125730000D03*
X227965000Y-125730000D03*
X225425000Y-125730000D03*
X225425000Y-133350000D03*
X227965000Y-133350000D03*
X230505000Y-133350000D03*
X233045000Y-133350000D03*
D28*
X208280000Y-150368000D03*
D29*
X208280000Y-156972000D03*
X210566000Y-156972000D03*
X205994000Y-156972000D03*
D30*
X194310000Y-154940000D03*
X194310000Y-160020000D03*
X186690000Y-154940000D03*
X186690000Y-160020000D03*
X240030000Y-163830000D03*
X245110000Y-163830000D03*
X240030000Y-171450000D03*
X245110000Y-171450000D03*
X194310000Y-165608000D03*
X194310000Y-170688000D03*
X186690000Y-165608000D03*
X186690000Y-170688000D03*
D31*
X226654360Y-118704360D03*
X221615000Y-121203720D03*
X221615000Y-116205000D03*
D27*
X227965000Y-153670000D03*
X227965000Y-156210000D03*
X227965000Y-158750000D03*
X227965000Y-161290000D03*
X227965000Y-163830000D03*
X227965000Y-166370000D03*
X227965000Y-168910000D03*
X235585000Y-168910000D03*
X235585000Y-166370000D03*
X235585000Y-163830000D03*
X235585000Y-161290000D03*
X235585000Y-158750000D03*
X235585000Y-156210000D03*
X235585000Y-153670000D03*
X220345000Y-138430000D03*
X220345000Y-140970000D03*
X220345000Y-143510000D03*
X220345000Y-146050000D03*
X227965000Y-146050000D03*
X227965000Y-143510000D03*
X227965000Y-140970000D03*
X227965000Y-138430000D03*
X238125000Y-114300000D03*
X235585000Y-114300000D03*
X233045000Y-114300000D03*
X233045000Y-121920000D03*
X235585000Y-121920000D03*
X238125000Y-121920000D03*
D32*
X200025000Y-161292540D03*
D33*
X210185000Y-161292540D03*
D32*
X212725000Y-134620000D03*
D33*
X202565000Y-134620000D03*
D32*
X212725000Y-130794760D03*
D33*
X202565000Y-130794760D03*
D32*
X208031080Y-126238000D03*
D33*
X208031080Y-116078000D03*
D32*
X212344000Y-116078000D03*
D33*
X212344000Y-126238000D03*
D34*
X240030000Y-160020000D03*
D35*
X240030000Y-157480000D03*
X242570000Y-160020000D03*
X242570000Y-157480000D03*
X245110000Y-160020000D03*
X245110000Y-157480000D03*
D21*
X180340000Y-130810000D03*
D22*
X195340000Y-130810000D03*
D21*
X182880000Y-123190000D03*
D22*
X190630000Y-123190000D03*
D21*
X182880000Y-116840000D03*
D22*
X190630000Y-116840000D03*
D36*
X201930000Y-123190000D03*
X196850000Y-123190000D03*
X196850000Y-118110000D03*
X201930000Y-118110000D03*
X192087500Y-146685000D03*
X192087500Y-143192500D03*
X192087500Y-139700000D03*
X181292500Y-139700000D03*
X181292500Y-146685000D03*
D37*
X244817460Y-121696900D03*
X244817460Y-121046900D03*
X244817460Y-120396900D03*
X244817460Y-119746900D03*
X244817460Y-119096900D03*
D38*
X244817460Y-122896900D03*
X244817460Y-117896900D03*
D39*
X247517460Y-123896900D03*
X247517460Y-116896900D03*
D36*
X173750000Y-122170000D03*
X173750000Y-120130000D03*
X171210000Y-121150000D03*
X171210000Y-123190000D03*
D40*
X168910000Y-127660000D03*
X168910000Y-115660000D03*
D36*
X173750000Y-139290000D03*
X173750000Y-137250000D03*
X171210000Y-138270000D03*
X171210000Y-140310000D03*
D40*
X168910000Y-144780000D03*
X168910000Y-132780000D03*
D41*
X220218000Y-131792980D03*
X220218000Y-127795020D03*
D16*
X198882000Y-168910000D03*
D17*
X201422000Y-168910000D03*
X203962000Y-168910000D03*
M02*
