G04 #@! TF.FileFunction,Legend,Bot*
%FSLAX46Y46*%
G04 Gerber Fmt 4.6, Leading zero omitted, Abs format (unit mm)*
G04 Created by KiCad (PCBNEW 4.0.2+dfsg1-stable) date Sat Feb 27 20:39:48 2016*
%MOMM*%
G01*
G04 APERTURE LIST*
%ADD10C,0.150000*%
%ADD11C,0.200000*%
%ADD12C,0.300000*%
%ADD13R,1.700000X2.000000*%
%ADD14R,2.500000X1.100000*%
%ADD15O,2.500000X1.100000*%
%ADD16R,1.727200X2.032000*%
%ADD17O,1.727200X2.032000*%
%ADD18C,1.699260*%
%ADD19R,1.699260X1.699260*%
%ADD20R,1.400000X1.400000*%
%ADD21C,1.400000*%
%ADD22R,2.000000X1.700000*%
%ADD23R,1.500000X1.250000*%
%ADD24R,1.250000X1.500000*%
%ADD25C,1.501140*%
%ADD26O,1.600000X1.600000*%
%ADD27C,1.397000*%
%ADD28C,2.499360*%
%ADD29C,1.998980*%
%ADD30R,1.998980X1.998980*%
%ADD31R,1.727200X1.727200*%
%ADD32O,1.727200X1.727200*%
%ADD33C,1.524000*%
%ADD34C,1.250000*%
%ADD35C,1.550000*%
%ADD36C,2.000000*%
G04 APERTURE END LIST*
D10*
D11*
X198120000Y-153670000D02*
X198120000Y-151130000D01*
X215900000Y-156210000D02*
X200660000Y-156210000D01*
X218440000Y-151130000D02*
X218440000Y-153670000D01*
X200660000Y-148590000D02*
X215900000Y-148590000D01*
X198120000Y-153670000D02*
G75*
G03X200660000Y-156210000I2540000J0D01*
G01*
X215900000Y-156210000D02*
G75*
G03X218440000Y-153670000I0J2540000D01*
G01*
X218440000Y-151130000D02*
G75*
G03X215900000Y-148590000I-2540000J0D01*
G01*
X200660000Y-148590000D02*
G75*
G03X198120000Y-151130000I0J-2540000D01*
G01*
D12*
X216284000Y-150378571D02*
X215926857Y-151878571D01*
X215641143Y-150807143D01*
X215355429Y-151878571D01*
X214998286Y-150378571D01*
X214426857Y-151878571D02*
X214426857Y-150878571D01*
X214426857Y-150378571D02*
X214498286Y-150450000D01*
X214426857Y-150521429D01*
X214355429Y-150450000D01*
X214426857Y-150378571D01*
X214426857Y-150521429D01*
X213926857Y-150878571D02*
X213355428Y-150878571D01*
X213712571Y-151878571D02*
X213712571Y-150592857D01*
X213641143Y-150450000D01*
X213498285Y-150378571D01*
X213355428Y-150378571D01*
X212855428Y-151878571D02*
X212855428Y-150878571D01*
X212855428Y-150378571D02*
X212926857Y-150450000D01*
X212855428Y-150521429D01*
X212784000Y-150450000D01*
X212855428Y-150378571D01*
X212855428Y-150521429D01*
X210141142Y-151735714D02*
X210212571Y-151807143D01*
X210426857Y-151878571D01*
X210569714Y-151878571D01*
X210783999Y-151807143D01*
X210926857Y-151664286D01*
X210998285Y-151521429D01*
X211069714Y-151235714D01*
X211069714Y-151021429D01*
X210998285Y-150735714D01*
X210926857Y-150592857D01*
X210783999Y-150450000D01*
X210569714Y-150378571D01*
X210426857Y-150378571D01*
X210212571Y-150450000D01*
X210141142Y-150521429D01*
X208783999Y-151878571D02*
X209498285Y-151878571D01*
X209498285Y-150378571D01*
X208283999Y-151878571D02*
X208283999Y-150378571D01*
X207569713Y-151878571D02*
X207569713Y-150378571D01*
X206998285Y-150378571D01*
X206855427Y-150450000D01*
X206783999Y-150521429D01*
X206712570Y-150664286D01*
X206712570Y-150878571D01*
X206783999Y-151021429D01*
X206855427Y-151092857D01*
X206998285Y-151164286D01*
X207569713Y-151164286D01*
X205069713Y-150878571D02*
X204712570Y-151878571D01*
X204355428Y-150878571D01*
X202998285Y-151878571D02*
X203855428Y-151878571D01*
X203426856Y-151878571D02*
X203426856Y-150378571D01*
X203569713Y-150592857D01*
X203712571Y-150735714D01*
X203855428Y-150807143D01*
X202355428Y-151735714D02*
X202284000Y-151807143D01*
X202355428Y-151878571D01*
X202426857Y-151807143D01*
X202355428Y-151735714D01*
X202355428Y-151878571D01*
X201355428Y-150378571D02*
X201212571Y-150378571D01*
X201069714Y-150450000D01*
X200998285Y-150521429D01*
X200926856Y-150664286D01*
X200855428Y-150950000D01*
X200855428Y-151307143D01*
X200926856Y-151592857D01*
X200998285Y-151735714D01*
X201069714Y-151807143D01*
X201212571Y-151878571D01*
X201355428Y-151878571D01*
X201498285Y-151807143D01*
X201569714Y-151735714D01*
X201641142Y-151592857D01*
X201712571Y-151307143D01*
X201712571Y-150950000D01*
X201641142Y-150664286D01*
X201569714Y-150521429D01*
X201498285Y-150450000D01*
X201355428Y-150378571D01*
X216784000Y-153707143D02*
X215641143Y-153707143D01*
X213141143Y-154278571D02*
X213141143Y-153492857D01*
X213212572Y-153350000D01*
X213355429Y-153278571D01*
X213641143Y-153278571D01*
X213784000Y-153350000D01*
X213141143Y-154207143D02*
X213284000Y-154278571D01*
X213641143Y-154278571D01*
X213784000Y-154207143D01*
X213855429Y-154064286D01*
X213855429Y-153921429D01*
X213784000Y-153778571D01*
X213641143Y-153707143D01*
X213284000Y-153707143D01*
X213141143Y-153635714D01*
X212426857Y-153278571D02*
X212426857Y-154278571D01*
X212426857Y-153421429D02*
X212355429Y-153350000D01*
X212212571Y-153278571D01*
X211998286Y-153278571D01*
X211855429Y-153350000D01*
X211784000Y-153492857D01*
X211784000Y-154278571D01*
X211069714Y-154278571D02*
X211069714Y-153278571D01*
X211069714Y-152778571D02*
X211141143Y-152850000D01*
X211069714Y-152921429D01*
X210998286Y-152850000D01*
X211069714Y-152778571D01*
X211069714Y-152921429D01*
X210141142Y-154278571D02*
X210284000Y-154207143D01*
X210355428Y-154064286D01*
X210355428Y-152778571D01*
X209569714Y-154135714D02*
X209498286Y-154207143D01*
X209569714Y-154278571D01*
X209641143Y-154207143D01*
X209569714Y-154135714D01*
X209569714Y-154278571D01*
X208855428Y-153278571D02*
X208855428Y-154278571D01*
X208855428Y-153421429D02*
X208784000Y-153350000D01*
X208641142Y-153278571D01*
X208426857Y-153278571D01*
X208284000Y-153350000D01*
X208212571Y-153492857D01*
X208212571Y-154278571D01*
X206926857Y-154207143D02*
X207069714Y-154278571D01*
X207355428Y-154278571D01*
X207498285Y-154207143D01*
X207569714Y-154064286D01*
X207569714Y-153492857D01*
X207498285Y-153350000D01*
X207355428Y-153278571D01*
X207069714Y-153278571D01*
X206926857Y-153350000D01*
X206855428Y-153492857D01*
X206855428Y-153635714D01*
X207569714Y-153778571D01*
X206426857Y-153278571D02*
X205855428Y-153278571D01*
X206212571Y-152778571D02*
X206212571Y-154064286D01*
X206141143Y-154207143D01*
X205998285Y-154278571D01*
X205855428Y-154278571D01*
X205355428Y-154135714D02*
X205284000Y-154207143D01*
X205355428Y-154278571D01*
X205426857Y-154207143D01*
X205355428Y-154135714D01*
X205355428Y-154278571D01*
X204641142Y-154278571D02*
X204641142Y-153278571D01*
X204641142Y-152778571D02*
X204712571Y-152850000D01*
X204641142Y-152921429D01*
X204569714Y-152850000D01*
X204641142Y-152778571D01*
X204641142Y-152921429D01*
X203926856Y-153278571D02*
X203926856Y-154278571D01*
X203926856Y-153421429D02*
X203855428Y-153350000D01*
X203712570Y-153278571D01*
X203498285Y-153278571D01*
X203355428Y-153350000D01*
X203283999Y-153492857D01*
X203283999Y-154278571D01*
X201426856Y-153707143D02*
X200283999Y-153707143D01*
D10*
X180526000Y-162544000D02*
X180526000Y-160544000D01*
X178376000Y-160544000D02*
X178376000Y-162544000D01*
X225060000Y-130615000D02*
X227060000Y-130615000D01*
X227060000Y-128465000D02*
X225060000Y-128465000D01*
X219472000Y-166175000D02*
X221472000Y-166175000D01*
X221472000Y-164025000D02*
X219472000Y-164025000D01*
X230065000Y-155210000D02*
X230065000Y-157210000D01*
X232215000Y-157210000D02*
X232215000Y-155210000D01*
X177351000Y-166830000D02*
X177351000Y-164830000D01*
X175201000Y-164830000D02*
X175201000Y-166830000D01*
X223080000Y-143780000D02*
X223080000Y-145780000D01*
X225230000Y-145780000D02*
X225230000Y-143780000D01*
X233950000Y-130615000D02*
X235950000Y-130615000D01*
X235950000Y-128465000D02*
X233950000Y-128465000D01*
X178046000Y-154774000D02*
X177046000Y-154774000D01*
X177046000Y-153074000D02*
X178046000Y-153074000D01*
X172681000Y-165215000D02*
X172681000Y-166215000D01*
X170981000Y-166215000D02*
X170981000Y-165215000D01*
X229655000Y-145300000D02*
X229655000Y-144300000D01*
X231355000Y-144300000D02*
X231355000Y-145300000D01*
X206486000Y-119575000D02*
X204486000Y-119575000D01*
X204486000Y-121725000D02*
X206486000Y-121725000D01*
X188706000Y-129989000D02*
X186706000Y-129989000D01*
X186706000Y-132139000D02*
X188706000Y-132139000D01*
X173541000Y-156829000D02*
X173541000Y-154829000D01*
X171391000Y-154829000D02*
X171391000Y-156829000D01*
X177998381Y-159631143D02*
X177522190Y-159297809D01*
X177998381Y-159059714D02*
X176998381Y-159059714D01*
X176998381Y-159440667D01*
X177046000Y-159535905D01*
X177093619Y-159583524D01*
X177188857Y-159631143D01*
X177331714Y-159631143D01*
X177426952Y-159583524D01*
X177474571Y-159535905D01*
X177522190Y-159440667D01*
X177522190Y-159059714D01*
X177998381Y-160583524D02*
X177998381Y-160012095D01*
X177998381Y-160297809D02*
X176998381Y-160297809D01*
X177141238Y-160202571D01*
X177236476Y-160107333D01*
X177284095Y-160012095D01*
X176998381Y-160916857D02*
X176998381Y-161535905D01*
X177379333Y-161202571D01*
X177379333Y-161345429D01*
X177426952Y-161440667D01*
X177474571Y-161488286D01*
X177569810Y-161535905D01*
X177807905Y-161535905D01*
X177903143Y-161488286D01*
X177950762Y-161440667D01*
X177998381Y-161345429D01*
X177998381Y-161059714D01*
X177950762Y-160964476D01*
X177903143Y-160916857D01*
X226226666Y-127692381D02*
X226560000Y-127216190D01*
X226798095Y-127692381D02*
X226798095Y-126692381D01*
X226417142Y-126692381D01*
X226321904Y-126740000D01*
X226274285Y-126787619D01*
X226226666Y-126882857D01*
X226226666Y-127025714D01*
X226274285Y-127120952D01*
X226321904Y-127168571D01*
X226417142Y-127216190D01*
X226798095Y-127216190D01*
X225845714Y-126787619D02*
X225798095Y-126740000D01*
X225702857Y-126692381D01*
X225464761Y-126692381D01*
X225369523Y-126740000D01*
X225321904Y-126787619D01*
X225274285Y-126882857D01*
X225274285Y-126978095D01*
X225321904Y-127120952D01*
X225893333Y-127692381D01*
X225274285Y-127692381D01*
X220638666Y-163393381D02*
X220972000Y-162917190D01*
X221210095Y-163393381D02*
X221210095Y-162393381D01*
X220829142Y-162393381D01*
X220733904Y-162441000D01*
X220686285Y-162488619D01*
X220638666Y-162583857D01*
X220638666Y-162726714D01*
X220686285Y-162821952D01*
X220733904Y-162869571D01*
X220829142Y-162917190D01*
X221210095Y-162917190D01*
X220162476Y-163393381D02*
X219972000Y-163393381D01*
X219876761Y-163345762D01*
X219829142Y-163298143D01*
X219733904Y-163155286D01*
X219686285Y-162964810D01*
X219686285Y-162583857D01*
X219733904Y-162488619D01*
X219781523Y-162441000D01*
X219876761Y-162393381D01*
X220067238Y-162393381D01*
X220162476Y-162441000D01*
X220210095Y-162488619D01*
X220257714Y-162583857D01*
X220257714Y-162821952D01*
X220210095Y-162917190D01*
X220162476Y-162964810D01*
X220067238Y-163012429D01*
X219876761Y-163012429D01*
X219781523Y-162964810D01*
X219733904Y-162917190D01*
X219686285Y-162821952D01*
X233892381Y-156043334D02*
X233416190Y-155710000D01*
X233892381Y-155471905D02*
X232892381Y-155471905D01*
X232892381Y-155852858D01*
X232940000Y-155948096D01*
X232987619Y-155995715D01*
X233082857Y-156043334D01*
X233225714Y-156043334D01*
X233320952Y-155995715D01*
X233368571Y-155948096D01*
X233416190Y-155852858D01*
X233416190Y-155471905D01*
X233320952Y-156614762D02*
X233273333Y-156519524D01*
X233225714Y-156471905D01*
X233130476Y-156424286D01*
X233082857Y-156424286D01*
X232987619Y-156471905D01*
X232940000Y-156519524D01*
X232892381Y-156614762D01*
X232892381Y-156805239D01*
X232940000Y-156900477D01*
X232987619Y-156948096D01*
X233082857Y-156995715D01*
X233130476Y-156995715D01*
X233225714Y-156948096D01*
X233273333Y-156900477D01*
X233320952Y-156805239D01*
X233320952Y-156614762D01*
X233368571Y-156519524D01*
X233416190Y-156471905D01*
X233511429Y-156424286D01*
X233701905Y-156424286D01*
X233797143Y-156471905D01*
X233844762Y-156519524D01*
X233892381Y-156614762D01*
X233892381Y-156805239D01*
X233844762Y-156900477D01*
X233797143Y-156948096D01*
X233701905Y-156995715D01*
X233511429Y-156995715D01*
X233416190Y-156948096D01*
X233368571Y-156900477D01*
X233320952Y-156805239D01*
X178633381Y-167727334D02*
X178157190Y-167394000D01*
X178633381Y-167155905D02*
X177633381Y-167155905D01*
X177633381Y-167536858D01*
X177681000Y-167632096D01*
X177728619Y-167679715D01*
X177823857Y-167727334D01*
X177966714Y-167727334D01*
X178061952Y-167679715D01*
X178109571Y-167632096D01*
X178157190Y-167536858D01*
X178157190Y-167155905D01*
X177633381Y-168060667D02*
X177633381Y-168727334D01*
X178633381Y-168298762D01*
X226766381Y-147661334D02*
X226290190Y-147328000D01*
X226766381Y-147089905D02*
X225766381Y-147089905D01*
X225766381Y-147470858D01*
X225814000Y-147566096D01*
X225861619Y-147613715D01*
X225956857Y-147661334D01*
X226099714Y-147661334D01*
X226194952Y-147613715D01*
X226242571Y-147566096D01*
X226290190Y-147470858D01*
X226290190Y-147089905D01*
X225766381Y-148518477D02*
X225766381Y-148328000D01*
X225814000Y-148232762D01*
X225861619Y-148185143D01*
X226004476Y-148089905D01*
X226194952Y-148042286D01*
X226575905Y-148042286D01*
X226671143Y-148089905D01*
X226718762Y-148137524D01*
X226766381Y-148232762D01*
X226766381Y-148423239D01*
X226718762Y-148518477D01*
X226671143Y-148566096D01*
X226575905Y-148613715D01*
X226337810Y-148613715D01*
X226242571Y-148566096D01*
X226194952Y-148518477D01*
X226147333Y-148423239D01*
X226147333Y-148232762D01*
X226194952Y-148137524D01*
X226242571Y-148089905D01*
X226337810Y-148042286D01*
X235116666Y-127692381D02*
X235450000Y-127216190D01*
X235688095Y-127692381D02*
X235688095Y-126692381D01*
X235307142Y-126692381D01*
X235211904Y-126740000D01*
X235164285Y-126787619D01*
X235116666Y-126882857D01*
X235116666Y-127025714D01*
X235164285Y-127120952D01*
X235211904Y-127168571D01*
X235307142Y-127216190D01*
X235688095Y-127216190D01*
X234211904Y-126692381D02*
X234688095Y-126692381D01*
X234735714Y-127168571D01*
X234688095Y-127120952D01*
X234592857Y-127073333D01*
X234354761Y-127073333D01*
X234259523Y-127120952D01*
X234211904Y-127168571D01*
X234164285Y-127263810D01*
X234164285Y-127501905D01*
X234211904Y-127597143D01*
X234259523Y-127644762D01*
X234354761Y-127692381D01*
X234592857Y-127692381D01*
X234688095Y-127644762D01*
X234735714Y-127597143D01*
X178188857Y-156381143D02*
X178236476Y-156428762D01*
X178379333Y-156476381D01*
X178474571Y-156476381D01*
X178617429Y-156428762D01*
X178712667Y-156333524D01*
X178760286Y-156238286D01*
X178807905Y-156047810D01*
X178807905Y-155904952D01*
X178760286Y-155714476D01*
X178712667Y-155619238D01*
X178617429Y-155524000D01*
X178474571Y-155476381D01*
X178379333Y-155476381D01*
X178236476Y-155524000D01*
X178188857Y-155571619D01*
X177236476Y-156476381D02*
X177807905Y-156476381D01*
X177522191Y-156476381D02*
X177522191Y-155476381D01*
X177617429Y-155619238D01*
X177712667Y-155714476D01*
X177807905Y-155762095D01*
X176903143Y-155476381D02*
X176284095Y-155476381D01*
X176617429Y-155857333D01*
X176474571Y-155857333D01*
X176379333Y-155904952D01*
X176331714Y-155952571D01*
X176284095Y-156047810D01*
X176284095Y-156285905D01*
X176331714Y-156381143D01*
X176379333Y-156428762D01*
X176474571Y-156476381D01*
X176760286Y-156476381D01*
X176855524Y-156428762D01*
X176903143Y-156381143D01*
X173839143Y-167251143D02*
X173886762Y-167203524D01*
X173934381Y-167060667D01*
X173934381Y-166965429D01*
X173886762Y-166822571D01*
X173791524Y-166727333D01*
X173696286Y-166679714D01*
X173505810Y-166632095D01*
X173362952Y-166632095D01*
X173172476Y-166679714D01*
X173077238Y-166727333D01*
X172982000Y-166822571D01*
X172934381Y-166965429D01*
X172934381Y-167060667D01*
X172982000Y-167203524D01*
X173029619Y-167251143D01*
X173934381Y-168203524D02*
X173934381Y-167632095D01*
X173934381Y-167917809D02*
X172934381Y-167917809D01*
X173077238Y-167822571D01*
X173172476Y-167727333D01*
X173220095Y-167632095D01*
X173029619Y-168584476D02*
X172982000Y-168632095D01*
X172934381Y-168727333D01*
X172934381Y-168965429D01*
X172982000Y-169060667D01*
X173029619Y-169108286D01*
X173124857Y-169155905D01*
X173220095Y-169155905D01*
X173362952Y-169108286D01*
X173934381Y-168536857D01*
X173934381Y-169155905D01*
X230989143Y-147915334D02*
X231036762Y-147867715D01*
X231084381Y-147724858D01*
X231084381Y-147629620D01*
X231036762Y-147486762D01*
X230941524Y-147391524D01*
X230846286Y-147343905D01*
X230655810Y-147296286D01*
X230512952Y-147296286D01*
X230322476Y-147343905D01*
X230227238Y-147391524D01*
X230132000Y-147486762D01*
X230084381Y-147629620D01*
X230084381Y-147724858D01*
X230132000Y-147867715D01*
X230179619Y-147915334D01*
X231084381Y-148391524D02*
X231084381Y-148582000D01*
X231036762Y-148677239D01*
X230989143Y-148724858D01*
X230846286Y-148820096D01*
X230655810Y-148867715D01*
X230274857Y-148867715D01*
X230179619Y-148820096D01*
X230132000Y-148772477D01*
X230084381Y-148677239D01*
X230084381Y-148486762D01*
X230132000Y-148391524D01*
X230179619Y-148343905D01*
X230274857Y-148296286D01*
X230512952Y-148296286D01*
X230608190Y-148343905D01*
X230655810Y-148391524D01*
X230703429Y-148486762D01*
X230703429Y-148677239D01*
X230655810Y-148772477D01*
X230608190Y-148820096D01*
X230512952Y-148867715D01*
X205652666Y-123402381D02*
X205986000Y-122926190D01*
X206224095Y-123402381D02*
X206224095Y-122402381D01*
X205843142Y-122402381D01*
X205747904Y-122450000D01*
X205700285Y-122497619D01*
X205652666Y-122592857D01*
X205652666Y-122735714D01*
X205700285Y-122830952D01*
X205747904Y-122878571D01*
X205843142Y-122926190D01*
X206224095Y-122926190D01*
X204700285Y-123402381D02*
X205271714Y-123402381D01*
X204986000Y-123402381D02*
X204986000Y-122402381D01*
X205081238Y-122545238D01*
X205176476Y-122640476D01*
X205271714Y-122688095D01*
X188348857Y-133816381D02*
X188682191Y-133340190D01*
X188920286Y-133816381D02*
X188920286Y-132816381D01*
X188539333Y-132816381D01*
X188444095Y-132864000D01*
X188396476Y-132911619D01*
X188348857Y-133006857D01*
X188348857Y-133149714D01*
X188396476Y-133244952D01*
X188444095Y-133292571D01*
X188539333Y-133340190D01*
X188920286Y-133340190D01*
X187396476Y-133816381D02*
X187967905Y-133816381D01*
X187682191Y-133816381D02*
X187682191Y-132816381D01*
X187777429Y-132959238D01*
X187872667Y-133054476D01*
X187967905Y-133102095D01*
X186444095Y-133816381D02*
X187015524Y-133816381D01*
X186729810Y-133816381D02*
X186729810Y-132816381D01*
X186825048Y-132959238D01*
X186920286Y-133054476D01*
X187015524Y-133102095D01*
X170618381Y-155186143D02*
X170142190Y-154852809D01*
X170618381Y-154614714D02*
X169618381Y-154614714D01*
X169618381Y-154995667D01*
X169666000Y-155090905D01*
X169713619Y-155138524D01*
X169808857Y-155186143D01*
X169951714Y-155186143D01*
X170046952Y-155138524D01*
X170094571Y-155090905D01*
X170142190Y-154995667D01*
X170142190Y-154614714D01*
X170618381Y-156138524D02*
X170618381Y-155567095D01*
X170618381Y-155852809D02*
X169618381Y-155852809D01*
X169761238Y-155757571D01*
X169856476Y-155662333D01*
X169904095Y-155567095D01*
X169713619Y-156519476D02*
X169666000Y-156567095D01*
X169618381Y-156662333D01*
X169618381Y-156900429D01*
X169666000Y-156995667D01*
X169713619Y-157043286D01*
X169808857Y-157090905D01*
X169904095Y-157090905D01*
X170046952Y-157043286D01*
X170618381Y-156471857D01*
X170618381Y-157090905D01*
%LPC*%
D13*
X179451000Y-159544000D03*
X179451000Y-163544000D03*
D14*
X182975000Y-167670000D03*
D15*
X182975000Y-165670000D03*
X182975000Y-163670000D03*
X182975000Y-161670000D03*
X182975000Y-159670000D03*
X182975000Y-157670000D03*
X182975000Y-155670000D03*
X182975000Y-153670000D03*
X167575000Y-153670000D03*
X167675000Y-155670000D03*
X167575000Y-157670000D03*
X167575000Y-159670000D03*
X167575000Y-161670000D03*
X167575000Y-163670000D03*
X167575000Y-165670000D03*
X167575000Y-167670000D03*
D16*
X209042000Y-168910000D03*
D17*
X211582000Y-168910000D03*
X214122000Y-168910000D03*
D18*
X216408000Y-116078000D03*
D19*
X216408000Y-126238000D03*
D20*
X198882000Y-144780000D03*
D21*
X198882000Y-139780000D03*
D20*
X204470000Y-139780000D03*
D21*
X204470000Y-144780000D03*
D22*
X228060000Y-129540000D03*
X224060000Y-129540000D03*
X222472000Y-165100000D03*
X218472000Y-165100000D03*
D13*
X231140000Y-158210000D03*
X231140000Y-154210000D03*
X176276000Y-163830000D03*
X176276000Y-167830000D03*
X224155000Y-146780000D03*
X224155000Y-142780000D03*
D22*
X236950000Y-129540000D03*
X232950000Y-129540000D03*
D23*
X176296000Y-153924000D03*
X178796000Y-153924000D03*
D24*
X171831000Y-166965000D03*
X171831000Y-164465000D03*
X230505000Y-143550000D03*
X230505000Y-146050000D03*
D25*
X223520000Y-161190940D03*
X223520000Y-156309060D03*
X234315000Y-144045940D03*
X234315000Y-139164060D03*
D26*
X233045000Y-125730000D03*
X230505000Y-125730000D03*
X227965000Y-125730000D03*
X225425000Y-125730000D03*
X225425000Y-133350000D03*
X227965000Y-133350000D03*
X230505000Y-133350000D03*
X233045000Y-133350000D03*
D27*
X194310000Y-154940000D03*
X194310000Y-160020000D03*
X186690000Y-154940000D03*
X186690000Y-160020000D03*
X240030000Y-163830000D03*
X245110000Y-163830000D03*
X240030000Y-171450000D03*
X245110000Y-171450000D03*
X194310000Y-165608000D03*
X194310000Y-170688000D03*
X186690000Y-165608000D03*
X186690000Y-170688000D03*
D28*
X226654360Y-118704360D03*
X221615000Y-121203720D03*
X221615000Y-116205000D03*
D26*
X227965000Y-153670000D03*
X227965000Y-156210000D03*
X227965000Y-158750000D03*
X227965000Y-161290000D03*
X227965000Y-163830000D03*
X227965000Y-166370000D03*
X227965000Y-168910000D03*
X235585000Y-168910000D03*
X235585000Y-166370000D03*
X235585000Y-163830000D03*
X235585000Y-161290000D03*
X235585000Y-158750000D03*
X235585000Y-156210000D03*
X235585000Y-153670000D03*
X220345000Y-138430000D03*
X220345000Y-140970000D03*
X220345000Y-143510000D03*
X220345000Y-146050000D03*
X227965000Y-146050000D03*
X227965000Y-143510000D03*
X227965000Y-140970000D03*
X227965000Y-138430000D03*
X238125000Y-114300000D03*
X235585000Y-114300000D03*
X233045000Y-114300000D03*
X233045000Y-121920000D03*
X235585000Y-121920000D03*
X238125000Y-121920000D03*
D29*
X200025000Y-161292540D03*
D30*
X210185000Y-161292540D03*
D29*
X212725000Y-134620000D03*
D30*
X202565000Y-134620000D03*
D29*
X212725000Y-130794760D03*
D30*
X202565000Y-130794760D03*
D29*
X208031080Y-126238000D03*
D30*
X208031080Y-116078000D03*
D29*
X212344000Y-116078000D03*
D30*
X212344000Y-126238000D03*
D31*
X240030000Y-160020000D03*
D32*
X240030000Y-157480000D03*
X242570000Y-160020000D03*
X242570000Y-157480000D03*
X245110000Y-160020000D03*
X245110000Y-157480000D03*
D20*
X180340000Y-130810000D03*
D21*
X195340000Y-130810000D03*
D20*
X182880000Y-123190000D03*
D21*
X190630000Y-123190000D03*
D20*
X182880000Y-116840000D03*
D21*
X190630000Y-116840000D03*
D33*
X201930000Y-123190000D03*
X196850000Y-123190000D03*
X196850000Y-118110000D03*
X201930000Y-118110000D03*
D22*
X203486000Y-120650000D03*
X207486000Y-120650000D03*
D33*
X192087500Y-146685000D03*
X192087500Y-143192500D03*
X192087500Y-139700000D03*
X181292500Y-139700000D03*
X181292500Y-146685000D03*
D34*
X244817460Y-122896900D03*
X244817460Y-117896900D03*
D35*
X247517460Y-123896900D03*
X247517460Y-116896900D03*
D33*
X173750000Y-122170000D03*
X173750000Y-120130000D03*
X171210000Y-121150000D03*
X171210000Y-123190000D03*
D36*
X168910000Y-127660000D03*
X168910000Y-115660000D03*
D33*
X173750000Y-139290000D03*
X173750000Y-137250000D03*
X171210000Y-138270000D03*
X171210000Y-140310000D03*
D36*
X168910000Y-144780000D03*
X168910000Y-132780000D03*
D22*
X185706000Y-131064000D03*
X189706000Y-131064000D03*
D13*
X172466000Y-153829000D03*
X172466000Y-157829000D03*
D16*
X198882000Y-168910000D03*
D17*
X201422000Y-168910000D03*
X203962000Y-168910000D03*
M02*
