G04 #@! TF.FileFunction,Soldermask,Top*
%FSLAX46Y46*%
G04 Gerber Fmt 4.6, Leading zero omitted, Abs format (unit mm)*
G04 Created by KiCad (PCBNEW 4.0.2+dfsg1-stable) date Sat Feb 27 20:39:48 2016*
%MOMM*%
G01*
G04 APERTURE LIST*
%ADD10C,0.150000*%
%ADD11R,2.500000X1.100000*%
%ADD12O,2.500000X1.100000*%
%ADD13R,1.727200X2.032000*%
%ADD14O,1.727200X2.032000*%
%ADD15C,1.699260*%
%ADD16R,1.699260X1.699260*%
%ADD17R,1.800860X1.597660*%
%ADD18R,1.400000X1.400000*%
%ADD19C,1.400000*%
%ADD20R,1.700000X2.000000*%
%ADD21R,1.500000X1.250000*%
%ADD22R,1.600200X2.999740*%
%ADD23C,1.501140*%
%ADD24O,1.600000X1.600000*%
%ADD25R,3.657600X2.032000*%
%ADD26R,1.016000X2.032000*%
%ADD27C,1.397000*%
%ADD28C,2.499360*%
%ADD29C,1.998980*%
%ADD30R,1.998980X1.998980*%
%ADD31R,1.727200X1.727200*%
%ADD32O,1.727200X1.727200*%
%ADD33C,1.524000*%
%ADD34R,1.350000X0.400000*%
%ADD35C,1.250000*%
%ADD36C,1.550000*%
%ADD37C,2.000000*%
%ADD38R,1.501140X2.999740*%
G04 APERTURE END LIST*
D10*
D11*
X182975000Y-167670000D03*
D12*
X182975000Y-165670000D03*
X182975000Y-163670000D03*
X182975000Y-161670000D03*
X182975000Y-159670000D03*
X182975000Y-157670000D03*
X182975000Y-155670000D03*
X182975000Y-153670000D03*
X167575000Y-153670000D03*
X167675000Y-155670000D03*
X167575000Y-157670000D03*
X167575000Y-159670000D03*
X167575000Y-161670000D03*
X167575000Y-163670000D03*
X167575000Y-165670000D03*
X167575000Y-167670000D03*
D13*
X209042000Y-168910000D03*
D14*
X211582000Y-168910000D03*
X214122000Y-168910000D03*
D15*
X216408000Y-116078000D03*
D16*
X216408000Y-126238000D03*
D17*
X243840000Y-152549860D03*
X243840000Y-149710140D03*
D18*
X198882000Y-144780000D03*
D19*
X198882000Y-139780000D03*
D18*
X204470000Y-139780000D03*
D19*
X204470000Y-144780000D03*
D20*
X212090000Y-144145000D03*
X212090000Y-140145000D03*
X215900000Y-140145000D03*
X215900000Y-144145000D03*
X239395000Y-149130000D03*
X239395000Y-153130000D03*
D21*
X217785000Y-160020000D03*
X215285000Y-160020000D03*
X217785000Y-162560000D03*
X215285000Y-162560000D03*
X238780000Y-139065000D03*
X241280000Y-139065000D03*
X238780000Y-144145000D03*
X241280000Y-144145000D03*
D22*
X200025000Y-151470360D03*
X200025000Y-155869640D03*
X217170000Y-151470360D03*
X217170000Y-155869640D03*
D23*
X223520000Y-161190940D03*
X223520000Y-156309060D03*
X234315000Y-144045940D03*
X234315000Y-139164060D03*
D24*
X233045000Y-125730000D03*
X230505000Y-125730000D03*
X227965000Y-125730000D03*
X225425000Y-125730000D03*
X225425000Y-133350000D03*
X227965000Y-133350000D03*
X230505000Y-133350000D03*
X233045000Y-133350000D03*
D25*
X208280000Y-150368000D03*
D26*
X208280000Y-156972000D03*
X210566000Y-156972000D03*
X205994000Y-156972000D03*
D27*
X194310000Y-154940000D03*
X194310000Y-160020000D03*
X186690000Y-154940000D03*
X186690000Y-160020000D03*
X240030000Y-163830000D03*
X245110000Y-163830000D03*
X240030000Y-171450000D03*
X245110000Y-171450000D03*
X194310000Y-165608000D03*
X194310000Y-170688000D03*
X186690000Y-165608000D03*
X186690000Y-170688000D03*
D28*
X226654360Y-118704360D03*
X221615000Y-121203720D03*
X221615000Y-116205000D03*
D24*
X227965000Y-153670000D03*
X227965000Y-156210000D03*
X227965000Y-158750000D03*
X227965000Y-161290000D03*
X227965000Y-163830000D03*
X227965000Y-166370000D03*
X227965000Y-168910000D03*
X235585000Y-168910000D03*
X235585000Y-166370000D03*
X235585000Y-163830000D03*
X235585000Y-161290000D03*
X235585000Y-158750000D03*
X235585000Y-156210000D03*
X235585000Y-153670000D03*
X220345000Y-138430000D03*
X220345000Y-140970000D03*
X220345000Y-143510000D03*
X220345000Y-146050000D03*
X227965000Y-146050000D03*
X227965000Y-143510000D03*
X227965000Y-140970000D03*
X227965000Y-138430000D03*
X238125000Y-114300000D03*
X235585000Y-114300000D03*
X233045000Y-114300000D03*
X233045000Y-121920000D03*
X235585000Y-121920000D03*
X238125000Y-121920000D03*
D29*
X200025000Y-161292540D03*
D30*
X210185000Y-161292540D03*
D29*
X212725000Y-134620000D03*
D30*
X202565000Y-134620000D03*
D29*
X212725000Y-130794760D03*
D30*
X202565000Y-130794760D03*
D29*
X208031080Y-126238000D03*
D30*
X208031080Y-116078000D03*
D29*
X212344000Y-116078000D03*
D30*
X212344000Y-126238000D03*
D31*
X240030000Y-160020000D03*
D32*
X240030000Y-157480000D03*
X242570000Y-160020000D03*
X242570000Y-157480000D03*
X245110000Y-160020000D03*
X245110000Y-157480000D03*
D18*
X180340000Y-130810000D03*
D19*
X195340000Y-130810000D03*
D18*
X182880000Y-123190000D03*
D19*
X190630000Y-123190000D03*
D18*
X182880000Y-116840000D03*
D19*
X190630000Y-116840000D03*
D33*
X201930000Y-123190000D03*
X196850000Y-123190000D03*
X196850000Y-118110000D03*
X201930000Y-118110000D03*
X192087500Y-146685000D03*
X192087500Y-143192500D03*
X192087500Y-139700000D03*
X181292500Y-139700000D03*
X181292500Y-146685000D03*
D34*
X244817460Y-121696900D03*
X244817460Y-121046900D03*
X244817460Y-120396900D03*
X244817460Y-119746900D03*
X244817460Y-119096900D03*
D35*
X244817460Y-122896900D03*
X244817460Y-117896900D03*
D36*
X247517460Y-123896900D03*
X247517460Y-116896900D03*
D33*
X173750000Y-122170000D03*
X173750000Y-120130000D03*
X171210000Y-121150000D03*
X171210000Y-123190000D03*
D37*
X168910000Y-127660000D03*
X168910000Y-115660000D03*
D33*
X173750000Y-139290000D03*
X173750000Y-137250000D03*
X171210000Y-138270000D03*
X171210000Y-140310000D03*
D37*
X168910000Y-144780000D03*
X168910000Y-132780000D03*
D38*
X220218000Y-131792980D03*
X220218000Y-127795020D03*
D13*
X198882000Y-168910000D03*
D14*
X201422000Y-168910000D03*
X203962000Y-168910000D03*
M02*
