G04 #@! TF.FileFunction,Soldermask,Bot*
%FSLAX46Y46*%
G04 Gerber Fmt 4.6, Leading zero omitted, Abs format (unit mm)*
G04 Created by KiCad (PCBNEW 4.0.2+dfsg1-stable) date Sat Feb 27 20:39:48 2016*
%MOMM*%
G01*
G04 APERTURE LIST*
%ADD10C,0.150000*%
%ADD11R,1.700000X2.000000*%
%ADD12R,2.500000X1.100000*%
%ADD13O,2.500000X1.100000*%
%ADD14R,1.727200X2.032000*%
%ADD15O,1.727200X2.032000*%
%ADD16C,1.699260*%
%ADD17R,1.699260X1.699260*%
%ADD18R,1.400000X1.400000*%
%ADD19C,1.400000*%
%ADD20R,2.000000X1.700000*%
%ADD21R,1.500000X1.250000*%
%ADD22R,1.250000X1.500000*%
%ADD23C,1.501140*%
%ADD24O,1.600000X1.600000*%
%ADD25C,1.397000*%
%ADD26C,2.499360*%
%ADD27C,1.998980*%
%ADD28R,1.998980X1.998980*%
%ADD29R,1.727200X1.727200*%
%ADD30O,1.727200X1.727200*%
%ADD31C,1.524000*%
%ADD32C,1.250000*%
%ADD33C,1.550000*%
%ADD34C,2.000000*%
G04 APERTURE END LIST*
D10*
D11*
X179451000Y-159544000D03*
X179451000Y-163544000D03*
D12*
X182975000Y-167670000D03*
D13*
X182975000Y-165670000D03*
X182975000Y-163670000D03*
X182975000Y-161670000D03*
X182975000Y-159670000D03*
X182975000Y-157670000D03*
X182975000Y-155670000D03*
X182975000Y-153670000D03*
X167575000Y-153670000D03*
X167675000Y-155670000D03*
X167575000Y-157670000D03*
X167575000Y-159670000D03*
X167575000Y-161670000D03*
X167575000Y-163670000D03*
X167575000Y-165670000D03*
X167575000Y-167670000D03*
D14*
X209042000Y-168910000D03*
D15*
X211582000Y-168910000D03*
X214122000Y-168910000D03*
D16*
X216408000Y-116078000D03*
D17*
X216408000Y-126238000D03*
D18*
X198882000Y-144780000D03*
D19*
X198882000Y-139780000D03*
D18*
X204470000Y-139780000D03*
D19*
X204470000Y-144780000D03*
D20*
X228060000Y-129540000D03*
X224060000Y-129540000D03*
X222472000Y-165100000D03*
X218472000Y-165100000D03*
D11*
X231140000Y-158210000D03*
X231140000Y-154210000D03*
X176276000Y-163830000D03*
X176276000Y-167830000D03*
X224155000Y-146780000D03*
X224155000Y-142780000D03*
D20*
X236950000Y-129540000D03*
X232950000Y-129540000D03*
D21*
X176296000Y-153924000D03*
X178796000Y-153924000D03*
D22*
X171831000Y-166965000D03*
X171831000Y-164465000D03*
X230505000Y-143550000D03*
X230505000Y-146050000D03*
D23*
X223520000Y-161190940D03*
X223520000Y-156309060D03*
X234315000Y-144045940D03*
X234315000Y-139164060D03*
D24*
X233045000Y-125730000D03*
X230505000Y-125730000D03*
X227965000Y-125730000D03*
X225425000Y-125730000D03*
X225425000Y-133350000D03*
X227965000Y-133350000D03*
X230505000Y-133350000D03*
X233045000Y-133350000D03*
D25*
X194310000Y-154940000D03*
X194310000Y-160020000D03*
X186690000Y-154940000D03*
X186690000Y-160020000D03*
X240030000Y-163830000D03*
X245110000Y-163830000D03*
X240030000Y-171450000D03*
X245110000Y-171450000D03*
X194310000Y-165608000D03*
X194310000Y-170688000D03*
X186690000Y-165608000D03*
X186690000Y-170688000D03*
D26*
X226654360Y-118704360D03*
X221615000Y-121203720D03*
X221615000Y-116205000D03*
D24*
X227965000Y-153670000D03*
X227965000Y-156210000D03*
X227965000Y-158750000D03*
X227965000Y-161290000D03*
X227965000Y-163830000D03*
X227965000Y-166370000D03*
X227965000Y-168910000D03*
X235585000Y-168910000D03*
X235585000Y-166370000D03*
X235585000Y-163830000D03*
X235585000Y-161290000D03*
X235585000Y-158750000D03*
X235585000Y-156210000D03*
X235585000Y-153670000D03*
X220345000Y-138430000D03*
X220345000Y-140970000D03*
X220345000Y-143510000D03*
X220345000Y-146050000D03*
X227965000Y-146050000D03*
X227965000Y-143510000D03*
X227965000Y-140970000D03*
X227965000Y-138430000D03*
X238125000Y-114300000D03*
X235585000Y-114300000D03*
X233045000Y-114300000D03*
X233045000Y-121920000D03*
X235585000Y-121920000D03*
X238125000Y-121920000D03*
D27*
X200025000Y-161292540D03*
D28*
X210185000Y-161292540D03*
D27*
X212725000Y-134620000D03*
D28*
X202565000Y-134620000D03*
D27*
X212725000Y-130794760D03*
D28*
X202565000Y-130794760D03*
D27*
X208031080Y-126238000D03*
D28*
X208031080Y-116078000D03*
D27*
X212344000Y-116078000D03*
D28*
X212344000Y-126238000D03*
D29*
X240030000Y-160020000D03*
D30*
X240030000Y-157480000D03*
X242570000Y-160020000D03*
X242570000Y-157480000D03*
X245110000Y-160020000D03*
X245110000Y-157480000D03*
D18*
X180340000Y-130810000D03*
D19*
X195340000Y-130810000D03*
D18*
X182880000Y-123190000D03*
D19*
X190630000Y-123190000D03*
D18*
X182880000Y-116840000D03*
D19*
X190630000Y-116840000D03*
D31*
X201930000Y-123190000D03*
X196850000Y-123190000D03*
X196850000Y-118110000D03*
X201930000Y-118110000D03*
D20*
X203486000Y-120650000D03*
X207486000Y-120650000D03*
D31*
X192087500Y-146685000D03*
X192087500Y-143192500D03*
X192087500Y-139700000D03*
X181292500Y-139700000D03*
X181292500Y-146685000D03*
D32*
X244817460Y-122896900D03*
X244817460Y-117896900D03*
D33*
X247517460Y-123896900D03*
X247517460Y-116896900D03*
D31*
X173750000Y-122170000D03*
X173750000Y-120130000D03*
X171210000Y-121150000D03*
X171210000Y-123190000D03*
D34*
X168910000Y-127660000D03*
X168910000Y-115660000D03*
D31*
X173750000Y-139290000D03*
X173750000Y-137250000D03*
X171210000Y-138270000D03*
X171210000Y-140310000D03*
D34*
X168910000Y-144780000D03*
X168910000Y-132780000D03*
D20*
X185706000Y-131064000D03*
X189706000Y-131064000D03*
D11*
X172466000Y-153829000D03*
X172466000Y-157829000D03*
D14*
X198882000Y-168910000D03*
D15*
X201422000Y-168910000D03*
X203962000Y-168910000D03*
M02*
